<svg width="54" height="55" viewBox="0 0 54 55" fill="none" xmlns="http://www.w3.org/2000/svg">
<path d="M40.2954 27.3565C40.258 23.9456 38.8614 20.6869 36.4086 18.288C33.9559 15.889 30.6451 14.5435 27.195 14.5435C23.745 14.5435 20.4342 15.889 17.9814 18.288C15.5287 20.6869 14.132 23.9456 14.0947 27.3565C14.0947 32.6313 17.6268 36.2284 18.1029 36.6824C18.8195 37.354 19.6079 37.9466 20.4541 38.4497V40.8488H34.3952V37.9396C37.7522 35.7076 40.2954 32.0149 40.2954 27.3565Z" fill="white"/>
<path d="M20.4541 44.048V49.5232C20.4541 52.5478 23.5746 55 27.4246 55C31.2747 55 34.3952 52.5478 34.3952 49.5232V44.048H20.4541Z" fill="white"/>
<path d="M50.9501 23.9812H47.8111C46.1267 23.9812 44.7612 25.3313 44.7612 26.9967C44.7612 28.6621 46.1267 30.0121 47.8111 30.0121H50.9501C52.6345 30.0121 54 28.6621 54 26.9967C54 25.3313 52.6345 23.9812 50.9501 23.9812Z" fill="white"/>
<path d="M6.18889 23.9812H3.04991C1.36549 23.9812 0 25.3313 0 26.9967C0 28.6621 1.36549 30.0121 3.04991 30.0121H6.18889C7.87331 30.0121 9.2388 28.6621 9.2388 26.9967C9.2388 25.3313 7.87331 23.9812 6.18889 23.9812Z" fill="white"/>
<path d="M30.2441 6.11904V3.01549C30.2441 1.35008 28.8786 0 27.1942 0C25.5098 0 24.1443 1.35008 24.1443 3.01549V6.11904C24.1443 7.78445 25.5098 9.13452 27.1942 9.13452C28.8786 9.13452 30.2441 7.78445 30.2441 6.11904Z" fill="white"/>
<path d="M14.376 10.3061L12.1564 8.11155C10.9654 6.93393 9.03427 6.93393 7.84321 8.11155C6.65214 9.28917 6.65214 11.1985 7.8432 12.3761L10.0628 14.5706C11.2539 15.7483 13.185 15.7483 14.376 14.5706C15.5671 13.393 15.5671 11.4837 14.376 10.3061Z" fill="white"/>
<path d="M42.3333 8.11173L40.1137 10.3063C38.9226 11.4839 38.9226 13.3932 40.1137 14.5708C41.3048 15.7484 43.2359 15.7484 44.4269 14.5708L46.6465 12.3763C47.8376 11.1987 47.8376 9.28935 46.6465 8.11173C45.4555 6.93411 43.5244 6.93411 42.3333 8.11173Z" fill="white"/>
</svg>
