<svg width="56" height="55" viewBox="0 0 56 55" fill="none" xmlns="http://www.w3.org/2000/svg">
<path d="M54.9818 9.99914C54.2447 10.0436 53.0582 10.0658 52.3088 10.0658C40.7107 10.0658 30.7466 7.198 28 0C25.2534 7.198 15.4994 10.0658 3.90131 10.0658C3.07781 10.0658 1.82942 10.0525 1.01818 9.99914C0.509089 13 -0.00217825 16.4469 6.98018e-06 19.7526C6.98018e-06 36.0711 11.6403 49.9424 28 55C44.2554 49.8891 56 36.0667 56 19.8178C56.0023 16.4941 55.4251 13.5 54.9818 9.99914ZM40.5389 22.7468L26.9196 35.9111C26.4664 36.3512 25.8767 36.6359 25.2404 36.7219C25.1013 36.7421 24.9609 36.752 24.8202 36.7515L24.3939 36.7219C23.7549 36.6375 23.1623 36.3526 22.707 35.9111L15.596 29.0392C15.0378 28.4998 14.7241 27.7682 14.724 27.0052C14.7238 26.2423 15.0372 25.5106 15.5953 24.971C16.1533 24.4314 16.9102 24.1282 17.6995 24.1281C18.4888 24.128 19.2458 24.4309 19.804 24.9703L24.8171 29.8203L36.3386 18.6839C36.6146 18.4173 36.9422 18.2059 37.3027 18.0617C37.6633 17.9175 38.0497 17.8433 38.4398 17.8435C38.83 17.8436 39.2163 17.918 39.5768 18.0625C39.9372 18.2069 40.2647 18.4186 40.5405 18.6854C40.8163 18.9521 41.035 19.2688 41.1842 19.6173C41.3334 19.9658 41.4101 20.3393 41.4099 20.7164C41.4098 21.0935 41.3328 21.467 41.1833 21.8154C41.0339 22.1637 40.8149 22.4803 40.5389 22.7468Z" fill="white"/>
</svg>
