<svg width="112" height="114" viewBox="0 0 112 114" fill="none" xmlns="http://www.w3.org/2000/svg">
<path d="M41.2551 113.002C40.2035 113 39.1715 112.718 38.266 112.183C37.3604 111.648 36.6144 110.881 36.1051 109.962C35.5958 109.042 35.3419 108.002 35.3696 106.951C35.3973 105.9 35.7056 104.876 36.2627 103.984L46.4368 87.7161C49.0781 83.4961 50.9297 78.8311 51.9014 73.9486V73.9132L52.2551 72.2157C52.7847 69.5547 53.0519 66.8481 53.0527 64.1349V54.056C53.0794 52.5103 53.7123 51.0371 54.815 49.9535C55.9176 48.8699 57.4019 48.2628 58.9479 48.2628C60.494 48.2628 61.9782 48.8699 63.0809 49.9535C64.1835 51.0371 64.8164 52.5103 64.8432 54.056V64.1349C64.8423 67.6289 64.4976 71.1144 63.8139 74.541C63.8139 74.5533 63.8139 74.5657 63.8139 74.5781L63.4602 76.2774C62.208 82.5481 59.8273 88.5395 56.434 93.9597L46.2581 110.227C45.7289 111.077 44.9917 111.778 44.1163 112.263C43.2409 112.749 42.2561 113.003 41.2551 113.002ZM70.734 110.054C69.7083 110.052 68.7007 109.783 67.8108 109.273C66.921 108.763 66.1795 108.03 65.6597 107.146C65.1399 106.261 64.8597 105.257 64.8468 104.232C64.8338 103.206 65.0886 102.195 65.5859 101.298C71.6925 90.2889 75.233 80.3867 76.4038 71.0151C76.4898 70.2388 76.7293 69.4874 77.1083 68.8044C77.4872 68.1214 77.9982 67.5206 78.6114 67.0367C79.2246 66.5529 79.9278 66.1957 80.6803 65.9859C81.4327 65.7761 82.2193 65.7179 82.9945 65.8147C83.7696 65.9114 84.5178 66.1612 85.1955 66.5495C85.8733 66.9379 86.4671 67.457 86.9425 68.0767C87.4179 68.6965 87.7654 69.4045 87.9648 70.1596C88.1642 70.9148 88.2115 71.7021 88.1041 72.4757C86.7423 83.3733 82.7456 94.6741 75.8874 107.023C75.3769 107.942 74.6298 108.708 73.7237 109.241C72.8175 109.774 71.7853 110.055 70.734 110.054ZM20.6275 98.2636C19.4616 98.2637 18.3218 97.9182 17.3523 97.2706C16.3829 96.623 15.6273 95.7025 15.1811 94.6255C14.7349 93.5485 14.6182 92.3634 14.8457 91.2201C15.0732 90.0768 15.6347 89.0266 16.4592 88.2023C27.0789 77.5929 29.4699 59.5428 29.4699 54.0595C29.4522 37.8147 42.6628 24.5795 58.9152 24.5636H58.9453C65.9889 24.5634 72.7997 27.0852 78.1443 31.6724C83.4889 36.2595 87.014 42.6086 88.0811 49.5699C88.3179 51.1152 87.9312 52.6912 87.0058 53.9513C86.0805 55.2114 84.6925 56.0524 83.147 56.2892C81.6015 56.5261 80.0253 56.1393 78.765 55.2142C77.5047 54.289 76.6636 52.9011 76.4267 51.3559C75.8047 47.1714 73.6948 43.3515 70.4838 40.5967C67.2729 37.8418 63.1762 36.3368 58.9453 36.3577H58.9276C54.2385 36.368 49.745 38.2374 46.4326 41.5559C43.1203 44.8745 41.2596 49.3711 41.2586 54.0595C41.2586 63.0651 37.8189 83.5254 24.7958 96.5431C24.2486 97.0903 23.5986 97.5239 22.8833 97.8192C22.168 98.1144 21.4014 98.2655 20.6275 98.2636ZM103.163 92.3718C102.267 92.3718 101.382 92.1677 100.577 91.775C99.7716 91.3822 99.0663 90.8113 98.5145 90.1053C97.9628 89.3994 97.5791 88.5771 97.3926 87.7008C97.2061 86.8245 97.2216 85.9172 97.4381 85.0478C100.209 73.9539 100.209 62.9237 100.209 54.0595C100.209 31.3076 81.7021 12.7942 58.9541 12.7889H58.9453C51.7014 12.7923 44.5858 14.7004 38.3123 18.3217C36.9597 19.0792 35.363 19.2736 33.8681 18.8627C32.3731 18.4518 31.1002 17.4686 30.3249 16.1262C29.5497 14.7837 29.3344 13.19 29.7258 11.69C30.1172 10.19 31.0838 8.90455 32.4162 8.11191C40.4824 3.45529 49.6311 1.00031 58.9453 0.992996L58.9576 0.992996C65.9253 0.994854 72.8244 2.36897 79.2609 5.03688C85.6974 7.70479 91.5453 11.6142 96.4706 16.542C101.396 21.4697 105.302 27.3193 107.966 33.7566C110.631 40.1939 112.001 47.0928 111.998 54.0595C111.998 63.0669 111.998 75.4039 108.877 87.9053C108.558 89.18 107.823 90.3117 106.788 91.1209C105.753 91.9302 104.477 92.3704 103.163 92.3718ZM5.89598 80.583C4.89181 80.5825 3.90438 80.3257 3.02727 79.8368C2.15015 79.348 1.4124 78.6433 0.883899 77.7896C0.355401 76.9359 0.0536626 75.9613 0.007274 74.9584C-0.0391146 73.9554 0.171382 72.9572 0.618821 72.0584C3.20965 66.8597 5.88891 61.4825 5.88891 54.0595C5.85165 42.9522 9.33616 32.1188 15.842 23.1154C16.2892 22.4746 16.8593 21.9292 17.5192 21.5107C18.1791 21.0922 18.9156 20.8091 19.686 20.6777C20.4563 20.5464 21.245 20.5695 22.0064 20.7456C22.7677 20.9218 23.4864 21.2475 24.1207 21.7038C24.755 22.1601 25.2923 22.738 25.7013 23.4038C26.1103 24.0696 26.3828 24.81 26.503 25.582C26.6233 26.354 26.5888 27.1423 26.4017 27.9009C26.2146 28.6595 25.8785 29.3733 25.413 30.0009C20.3572 36.9978 17.6496 45.417 17.6794 54.0489C17.6794 64.2534 14.0717 71.4961 11.1731 77.3153C10.684 78.2976 9.93043 79.1238 8.99719 79.7011C8.06395 80.2784 6.98809 80.5838 5.89068 80.583H5.89598Z" fill="white"/>
</svg>
