<svg width="45" height="45" viewBox="0 0 45 45" fill="none" xmlns="http://www.w3.org/2000/svg">
<path d="M5.92245 45C4.35798 45.0028 2.85635 44.3845 1.74731 43.2809L1.73487 43.2676C0.626525 42.1593 0.00267272 40.6568 8.56787e-06 39.0893C-0.00265559 37.5218 0.616086 36.0172 1.72066 34.9051L1.73487 34.8918C2.84387 33.7852 4.34577 33.1625 5.91241 33.1598C7.47905 33.1571 8.98306 33.7747 10.0958 34.8776L10.11 34.8918C11.2156 36.0002 11.8381 37.5009 11.8415 39.0665C11.845 40.6321 11.2293 42.1356 10.1287 43.249L10.11 43.2676C9.56058 43.8181 8.90777 44.2545 8.18912 44.5518C7.47047 44.8491 6.70016 45.0014 5.92245 45ZM42.0392 42.3286C41.2554 42.3288 40.5035 42.0181 39.9485 41.4647C39.3934 40.9113 39.0805 40.1603 39.0784 39.3764C39.0233 20.9866 24.0168 5.9727 5.62575 5.92117C4.856 5.89705 4.12592 5.57403 3.59033 5.02061C3.05474 4.46718 2.75577 3.72689 2.75681 2.9567C2.75785 2.18652 3.05882 1.44703 3.5959 0.89506C4.13299 0.343086 4.86394 0.0220376 5.63374 0L5.64263 0C10.8968 0.00676506 16.0959 1.07149 20.9299 3.13071C25.5993 5.11347 29.842 7.97917 33.4251 11.5705C37.0187 15.1561 39.8857 19.4023 41.8686 24.0756C43.9269 28.9074 44.9919 34.104 45 39.356C45.0021 40.1414 44.6922 40.8955 44.1385 41.4524C43.5848 42.0094 42.8325 42.3236 42.0472 42.3259L42.0392 42.3286ZM25.4817 42.2806C24.6962 42.2806 23.9428 41.9685 23.3874 41.4131C22.832 40.8576 22.52 40.1042 22.52 39.3187C22.52 30.0021 14.9932 22.4214 5.74123 22.4214C4.96474 22.4079 4.2246 22.09 3.68024 21.5361C3.13587 20.9822 2.83084 20.2366 2.83084 19.4599C2.83084 18.6832 3.13587 17.9376 3.68024 17.3837C4.2246 16.8298 4.96474 16.5119 5.74123 16.4984C8.72772 16.4914 11.6857 17.0793 14.4426 18.2277C17.1995 19.3761 19.7002 21.062 21.7986 23.1872C23.9135 25.3058 25.589 27.8213 26.729 30.5893C27.869 33.3573 28.451 36.3233 28.4416 39.3169C28.4419 39.706 28.3656 40.0914 28.217 40.451C28.0683 40.8106 27.8503 41.1374 27.5754 41.4127C27.3004 41.688 26.9739 41.9065 26.6145 42.0555C26.2551 42.2046 25.8698 42.2814 25.4808 42.2815L25.4817 42.2806Z" fill="white"/>
</svg>
