<svg width="133" height="192" viewBox="0 0 133 192" fill="none" xmlns="http://www.w3.org/2000/svg">
<path d="M113.523 142.996C119.717 136.839 124.628 129.515 127.972 121.448C131.315 113.381 133.024 104.731 133 96C133 94.0415 132.222 92.1632 130.836 90.7783C129.45 89.3934 127.571 88.6154 125.611 88.6154C123.651 88.6154 121.772 89.3934 120.386 90.7783C119.001 92.1632 118.222 94.0415 118.222 96C118.222 124.505 95.0211 147.692 66.5 147.692C37.9789 147.692 14.7778 124.505 14.7778 96C14.7778 94.0415 13.9993 92.1632 12.6136 90.7783C11.2279 89.3934 9.34855 88.6154 7.3889 88.6154C5.42924 88.6154 3.54985 89.3934 2.16416 90.7783C0.778475 92.1632 6.20421e-06 94.0415 6.20421e-06 96C-0.0240443 104.731 1.68503 113.381 5.02828 121.448C8.37154 129.515 13.2826 136.839 19.4771 142.996C30.1191 153.691 44.1078 160.418 59.1111 162.054V177.231H36.9445C34.9848 177.231 33.1054 178.009 31.7197 179.394C30.334 180.779 29.5556 182.657 29.5556 184.615C29.5556 186.574 30.334 188.452 31.7197 189.837C33.1054 191.222 34.9848 192 36.9445 192H96.0556C98.0152 192 99.8946 191.222 101.28 189.837C102.666 188.452 103.444 186.574 103.444 184.615C103.444 182.657 102.666 180.779 101.28 179.394C99.8946 178.009 98.0152 177.231 96.0556 177.231H73.8889V162.054C88.8922 160.418 102.881 153.691 113.523 142.996Z" fill="white"/>
<path d="M66.5 132.923C76.2949 132.912 85.6855 129.019 92.6116 122.096C99.5376 115.174 103.433 105.789 103.444 96V36.9231C103.433 27.1338 99.5376 17.7487 92.6116 10.8266C85.6855 3.90456 76.2949 0.0109456 66.5 0C56.7051 0.0109456 47.3145 3.90456 40.3884 10.8266C33.4624 17.7487 29.5665 27.1338 29.5555 36.9231V96C29.5665 105.789 33.4624 115.174 40.3884 122.096C47.3145 129.019 56.7051 132.912 66.5 132.923Z" fill="white"/>
</svg>
