<svg width="129" height="144" viewBox="0 0 129 144" fill="none" xmlns="http://www.w3.org/2000/svg">
<path d="M95.6781 24.3781C92.6535 24.3758 89.6447 24.8148 86.7467 25.6815C83.2002 10.8836 71.2331 0 57.0174 0C40.0047 0 26.2162 15.5857 26.2162 34.8133C26.2144 36.6557 26.3431 38.4959 26.6014 40.3201C11.7117 41.4726 0 53.471 0 68.1096C0 83.5068 12.9804 95.9913 28.9463 95.9913C29.7293 95.9913 30.5039 95.9578 31.2702 95.8991H57.0174V63.5123L51.4652 69.0651L42.7767 77.7611C41.6406 78.8987 40.0996 79.538 38.4925 79.5384C36.8855 79.5388 35.3442 78.9003 34.2075 77.7632C33.0709 76.6262 32.4321 75.0838 32.4318 73.4754C32.4314 71.867 33.0694 70.3243 34.2054 69.1867L39.7451 63.6422L52.0556 51.3211L60.3463 43.0232C60.5748 42.6768 60.8371 42.354 61.1293 42.0593C62.2935 40.9064 63.8651 40.2597 65.5029 40.2597C67.1406 40.2597 68.7122 40.9064 69.8764 42.0593C70.17 42.3538 70.4337 42.6766 70.6636 43.0232L82.3167 54.6863L82.4004 54.7701L96.8003 69.1867C97.901 70.3309 98.5093 71.8618 98.4942 73.4501C98.4792 75.0385 97.8421 76.5575 96.7199 77.6807C95.5977 78.8039 94.0799 79.4415 92.493 79.4566C90.906 79.4716 89.3765 78.8628 88.2332 77.7611L74.1976 63.7134L73.5109 63.0303V95.8991H93.3584C94.1246 95.9578 94.8993 95.9913 95.6781 95.9913C96.4569 95.9913 97.2274 95.9578 97.9894 95.8991C115.316 94.6418 129 79.1357 129 60.1847C129 40.4081 114.081 24.3781 95.6781 24.3781Z" fill="white"/>
<path d="M57.0175 134.744C56.9927 135.844 57.1877 136.937 57.591 137.96C57.9943 138.983 58.5978 139.915 59.3661 140.702C60.1343 141.488 61.0518 142.113 62.0646 142.54C63.0775 142.966 64.1653 143.186 65.2642 143.186C66.3631 143.186 67.4509 142.966 68.4638 142.54C69.4766 142.113 70.3941 141.488 71.1624 140.702C71.9306 139.915 72.5341 138.983 72.9374 137.96C73.3407 136.937 73.5357 135.844 73.511 134.744V95.8991H57.0175V134.744Z" fill="white"/>
</svg>
