<svg width="29" height="29" viewBox="0 0 29 29" fill="none" xmlns="http://www.w3.org/2000/svg">
<path fill-rule="evenodd" clip-rule="evenodd" d="M14.5 1.5C7.3203 1.5 1.5 7.3203 1.5 14.5C1.5 21.6797 7.3203 27.5 14.5 27.5C21.6797 27.5 27.5 21.6797 27.5 14.5C27.5 7.3203 21.6797 1.5 14.5 1.5ZM0.5 14.5C0.5 6.76801 6.76801 0.5 14.5 0.5C22.232 0.5 28.5 6.76801 28.5 14.5C28.5 22.232 22.232 28.5 14.5 28.5C6.76801 28.5 0.5 22.232 0.5 14.5Z" fill="black"/>
<path fill-rule="evenodd" clip-rule="evenodd" d="M12.5167 14.5542V20.8375C12.5167 20.9458 12.575 21 12.6917 21H15.375C15.4917 21 15.55 20.9458 15.55 20.8375V14.4472H17.5333C17.65 14.4472 17.7083 14.393 17.7083 14.2847L17.8833 12.3333C17.8833 12.225 17.825 12.1708 17.7083 12.1708H15.55V10.8167C15.55 10.4917 15.8417 10.2208 16.25 10.2208H17.7667C17.9417 10.2208 18 10.1667 18 10.0583V8.1625C18 8.05417 17.9417 8 17.825 8H15.2583C13.7417 8 12.5167 9.02917 12.5167 10.3292V12.1708H11.175C11.0583 12.1708 11 12.225 11 12.3333V14.2833C11 14.3917 11.0583 14.4458 11.175 14.4458H12.5167V14.5542Z" fill="black"/>
</svg>
