<svg width="29" height="29" viewBox="0 0 29 29" fill="none" xmlns="http://www.w3.org/2000/svg">
<path d="M17.0101 8.64307H11.9897C11.1022 8.64307 10.2509 8.99566 9.62329 9.62329C8.99566 10.2509 8.64307 11.1022 8.64307 11.9897V17.0101C8.64307 17.8977 8.99566 18.749 9.62329 19.3766C10.2509 20.0042 11.1022 20.3568 11.9897 20.3568H17.0101C17.8977 20.3568 18.749 20.0042 19.3766 19.3766C20.0042 18.749 20.3568 17.8977 20.3568 17.0101V11.9897C20.3568 11.1022 20.0042 10.2509 19.3766 9.62329C18.749 8.99566 17.8977 8.64307 17.0101 8.64307Z" fill="black" stroke="black" stroke-linecap="round" stroke-linejoin="round"/>
<path d="M14.5 17.0101C13.9192 17.0102 13.3563 16.8089 12.9072 16.4405C12.4581 16.0721 12.1507 15.5594 12.0373 14.9897C11.9239 14.42 12.0116 13.8287 12.2853 13.3164C12.5591 12.8041 13.002 12.4026 13.5386 12.1802C14.0752 11.9579 14.6723 11.9285 15.2281 12.0971C15.784 12.2656 16.2642 12.6217 16.5869 13.1046C16.9097 13.5876 17.0549 14.1675 16.998 14.7455C16.9411 15.3236 16.6855 15.864 16.2748 16.2747C15.8041 16.7455 15.1657 17.01 14.5 17.0101Z" stroke="white" stroke-linecap="round" stroke-linejoin="round"/>
<path d="M17.0103 11.1531C17.0103 11.0433 17.0319 10.9345 17.074 10.8329C17.116 10.7314 17.1777 10.6392 17.2554 10.5615C17.3331 10.4838 17.4254 10.4222 17.5269 10.3802C17.6284 10.3382 17.7372 10.3166 17.8471 10.3167C18.069 10.3167 18.2817 10.4048 18.4386 10.5617C18.5955 10.7185 18.6836 10.9313 18.6836 11.1531C18.6836 11.263 18.662 11.3718 18.62 11.4734C18.578 11.5749 18.5164 11.6671 18.4387 11.7449C18.361 11.8226 18.2688 11.8842 18.1673 11.9263C18.0658 11.9683 17.957 11.99 17.8471 11.99C17.7372 11.99 17.6284 11.9684 17.5268 11.9264C17.4252 11.8843 17.333 11.8227 17.2553 11.745C17.1775 11.6673 17.1159 11.575 17.0739 11.4734C17.0318 11.3719 17.0102 11.2631 17.0103 11.1531Z" fill="white"/>
<path d="M14.5 28C21.9558 28 28 21.9558 28 14.5C28 7.04416 21.9558 1 14.5 1C7.04416 1 1 7.04416 1 14.5C1 21.9558 7.04416 28 14.5 28Z" stroke="black" stroke-linecap="round" stroke-linejoin="round"/>
</svg>
