<svg width="29" height="29" viewBox="0 0 29 29" fill="none" xmlns="http://www.w3.org/2000/svg">
<path d="M14.5 28C21.9558 28 28 21.9558 28 14.5C28 7.04416 21.9558 1 14.5 1C7.04416 1 1 7.04416 1 14.5C1 21.9558 7.04416 28 14.5 28Z" stroke="black" stroke-linecap="round" stroke-linejoin="round"/>
<path fill-rule="evenodd" clip-rule="evenodd" d="M12.1311 21.0558C18.2897 21.0558 21.6583 16.0327 21.6583 11.6758C21.6583 11.533 21.6583 11.3908 21.6482 11.2495C22.3022 10.7847 22.8679 10.2069 23.3187 9.54324C22.707 9.81022 22.0591 9.985 21.3961 10.0619C22.0922 9.65315 22.6155 9.00482 22.8682 8.23818C22.2096 8.62292 21.4907 8.89358 20.7419 9.03873C19.4736 7.71107 17.3538 7.64828 16.0039 8.89557C15.5779 9.2878 15.2637 9.78615 15.0936 10.3396C14.9234 10.8931 14.9033 11.4819 15.0354 12.0457C12.3433 11.9122 9.8349 10.6621 8.13427 8.60172C7.24582 10.1086 7.70041 12.0341 9.17028 13.0016C8.63908 12.9861 8.11912 12.845 7.653 12.5897V12.6315C7.653 14.2012 8.77723 15.5512 10.3391 15.8623C9.84615 15.995 9.32952 16.0142 8.82809 15.9185C9.26761 17.2621 10.5234 18.1823 11.9556 18.2084C10.7645 19.1273 9.30177 19.6243 7.79741 19.6211C7.53092 19.6205 7.26468 19.6047 7 19.5737C8.53575 20.5428 10.3151 21.056 12.1311 21.0536" fill="black"/>
</svg>
