<svg width="209" height="32" viewBox="0 0 209 32" fill="none" xmlns="http://www.w3.org/2000/svg">
<path d="M24.5714 8.38043H25.7547L29.1223 5.08895L29.2884 3.69102C29.0472 3.48433 28.8014 3.28431 28.5488 3.09318C28.2963 2.90204 28.0369 2.71758 27.7707 2.54201C27.5044 2.36643 27.2359 2.19975 26.9606 2.03973C26.6853 1.87971 26.4054 1.7308 26.1187 1.59523C25.832 1.45966 25.5453 1.31965 25.2495 1.19742C24.9537 1.07518 24.6579 0.959602 24.3576 0.852923C24.0572 0.746244 23.75 0.652905 23.4474 0.566229C23.1448 0.479553 22.8308 0.403989 22.5167 0.343982C22.2027 0.283975 21.891 0.219531 21.5747 0.170636C21.2584 0.121742 20.9399 0.0861825 20.6213 0.0595128C20.3028 0.0328432 19.9842 0.0128409 19.6634 0.00395106C19.3426 -0.00493882 19.024 0.00395106 18.7032 0.00395106C18.3823 0.00395106 18.0638 0.0372832 17.7452 0.0683978C17.4267 0.0995124 17.1104 0.141739 16.7941 0.192856C16.4778 0.243972 16.1661 0.306203 15.8544 0.3751C15.5426 0.443996 15.2332 0.52622 14.926 0.617342C14.6188 0.708463 14.3162 0.806258 14.0158 0.915159C13.7155 1.02406 13.4197 1.1374 13.1284 1.26852C12.8372 1.39965 12.5459 1.53078 12.2638 1.67524C11.9816 1.8197 11.7017 1.97528 11.4264 2.13752C11.1511 2.29976 10.8849 2.46866 10.6232 2.64868C10.3615 2.8287 10.1044 3.01317 9.85411 3.20875C9.60382 3.40433 9.35807 3.60435 9.12143 3.81548C8.88479 4.02662 8.6527 4.24219 8.43881 4.46444C8.22492 4.68669 7.99965 4.90893 7.79259 5.15785C7.58553 5.40676 7.38302 5.63791 7.19189 5.88905C7.00075 6.14019 6.81417 6.39355 6.63896 6.6558C6.46375 6.91806 6.29538 7.18252 6.1361 7.45589C5.97682 7.72925 5.82892 8.00262 5.68102 8.28265C5.53311 8.56269 5.40796 8.84938 5.28737 9.1383C5.16677 9.42722 5.05983 9.72059 4.94833 10.0162C4.83684 10.3118 4.75037 10.6118 4.66846 10.9052C5.04236 10.7509 5.45893 10.7258 5.84939 10.834L12.5846 9.74948C12.5846 9.74948 12.9282 9.19608 13.1057 9.22942C13.2831 9.03828 13.4697 8.85605 13.6677 8.68047C13.8657 8.5049 14.0659 8.34265 14.2798 8.18708C14.4937 8.0315 14.7098 7.88704 14.9351 7.74258C15.1604 7.59812 15.3902 7.48478 15.6314 7.36921C15.8726 7.25364 16.1138 7.14696 16.3618 7.06251C16.6098 6.97805 16.8624 6.8936 17.1172 6.8247C17.3721 6.7558 17.6315 6.70024 17.8931 6.65802C18.1548 6.61579 18.4165 6.58245 18.6804 6.56245C18.9444 6.54245 19.2083 6.53579 19.4745 6.54023C19.7408 6.54468 20.0024 6.56245 20.2664 6.59134C20.5303 6.62024 20.7897 6.66024 21.0491 6.71358C21.3085 6.76692 21.5656 6.83359 21.8182 6.91138C22.0708 6.98917 22.3188 7.07584 22.5645 7.17585C22.8103 7.27587 23.0469 7.38699 23.2813 7.50923C23.5157 7.63146 23.7364 7.76482 23.9639 7.90706C24.1914 8.04929 24.3962 8.20263 24.6033 8.3671L24.5714 8.38043Z" fill="white"/>
<path d="M33.9188 10.9096C33.5337 9.52425 32.9451 8.20072 32.1713 6.98029C31.7853 6.37024 31.3541 5.78863 30.8811 5.24011C30.408 4.69247 29.8955 4.1785 29.3475 3.70215L24.6192 8.32267C25.6048 9.10899 26.3945 10.1038 26.9288 11.2319C27.4619 12.3604 27.7271 13.5919 27.7047 14.8345V15.6546C27.8412 15.6546 27.98 15.6546 28.1165 15.6746C28.253 15.6946 28.3896 15.7079 28.5261 15.7346C28.6614 15.7596 28.7951 15.7922 28.9266 15.8324C29.0586 15.8709 29.1885 15.9162 29.3157 15.968C29.4408 16.0191 29.566 16.0769 29.6888 16.1391C29.8117 16.2013 29.9164 16.2724 30.0415 16.348C30.157 16.4215 30.268 16.5017 30.3737 16.588C30.4809 16.6731 30.5835 16.7636 30.6809 16.8592C30.7765 16.9547 30.8698 17.0525 30.9585 17.157C31.0472 17.2615 31.1269 17.3792 31.2043 17.4815C31.2816 17.5837 31.3499 17.7037 31.4159 17.8282C31.4818 17.9526 31.5387 18.0682 31.5933 18.1927C31.648 18.3171 31.6912 18.4438 31.7321 18.5727C31.7731 18.7016 31.805 18.8327 31.8323 18.9639C31.8596 19.0961 31.8801 19.2296 31.8937 19.3639C31.8937 19.4973 31.9119 19.6306 31.9119 19.7662C31.9119 19.9017 31.9119 20.0351 31.8937 20.1684C31.8802 20.3027 31.8597 20.4362 31.8323 20.5685C31.805 20.7018 31.7708 20.8307 31.7321 20.9596C31.6935 21.0885 31.6457 21.2152 31.5933 21.3397C31.541 21.4641 31.4818 21.5864 31.4159 21.7042C31.3499 21.822 31.2793 21.9397 31.2043 22.0509C31.1292 22.162 31.045 22.2731 30.9585 22.3754C30.872 22.4776 30.7765 22.5798 30.6809 22.6732C30.5835 22.7688 30.4809 22.8593 30.3737 22.9443C30.268 23.0307 30.157 23.1108 30.0415 23.1843C29.9277 23.2599 29.814 23.3288 29.6888 23.3932C29.5637 23.4577 29.4408 23.5133 29.3157 23.5644C29.1889 23.6171 29.0589 23.6624 28.9266 23.6999C28.7949 23.7398 28.6612 23.7732 28.5261 23.8C28.3896 23.8244 28.253 23.8444 28.1165 23.8577C27.98 23.8711 27.8412 23.8777 27.7047 23.8777H19.2857L18.446 24.7089V29.6406L19.2857 30.4607H27.7047C27.9959 30.4607 28.2872 30.4607 28.5762 30.4318C28.8651 30.4029 29.1564 30.3807 29.4454 30.3362C29.7343 30.2918 30.0188 30.2407 30.3032 30.174C30.5876 30.1073 30.8652 30.0318 31.1428 29.9518C31.4204 29.8718 31.6935 29.7673 31.9642 29.6584C32.235 29.5495 32.4967 29.4361 32.7561 29.3006C33.0155 29.165 33.2703 29.0339 33.5183 28.885C33.7664 28.7361 34.0075 28.5761 34.2442 28.4094C34.4808 28.2427 34.6993 28.0649 34.9268 27.8782C35.1544 27.6915 35.3614 27.4982 35.5662 27.2959C35.771 27.0937 35.969 26.8825 36.1555 26.6647C36.3421 26.4469 36.5219 26.2202 36.6925 25.998C36.8632 25.7757 37.0202 25.529 37.1704 25.2846C37.3205 25.0401 37.4593 24.7912 37.589 24.5356C37.7187 24.28 37.8393 24.0222 37.9463 23.7577C38.0532 23.4932 38.1533 23.2243 38.2398 22.9532C38.3263 22.682 38.4014 22.4065 38.4673 22.1287C38.5333 21.8509 38.5834 21.5708 38.6243 21.2886C38.6653 21.0063 38.6949 20.7241 38.7131 20.4396C38.7313 20.1551 38.7381 19.8706 38.7313 19.5862C38.7245 19.3017 38.7108 19.0172 38.6812 18.7349C38.6517 18.4527 38.613 18.1682 38.5606 17.8882C38.5083 17.6082 38.4469 17.3303 38.3741 17.0548C38.3012 16.7792 38.2125 16.508 38.1169 16.2391C38.0214 15.9702 37.9122 15.7057 37.7961 15.4457C37.6801 15.1857 37.5481 14.9301 37.4093 14.6812C37.2705 14.4322 37.1226 14.1856 36.9542 13.9477C36.7858 13.7099 36.6265 13.4766 36.4491 13.2499C36.2716 13.0232 36.0827 12.8054 35.887 12.5965C35.6913 12.3876 35.4888 12.1831 35.2749 11.9875C35.0611 11.7919 34.8449 11.6053 34.6174 11.4275C34.3898 11.2497 34.16 11.0674 33.9188 10.9096Z" fill="white"/>
<path d="M10.8667 30.414H19.2857V23.8333H10.8667C10.2674 23.8351 9.6749 23.7092 9.13054 23.4644L7.94733 23.8222L4.55697 27.1136L4.26117 28.2671C4.73294 28.6151 5.2329 28.925 5.75611 29.1939C6.27887 29.4591 6.823 29.6821 7.38303 29.8606C8.5057 30.2289 9.68237 30.4158 10.8667 30.414Z" fill="white"/>
<path d="M10.8667 9.06054C10.5845 9.06054 10.3024 9.07609 10.0202 9.09832C9.73808 9.12054 9.4582 9.15388 9.17833 9.19833C8.89845 9.24278 8.62313 9.29834 8.3478 9.36279C8.07248 9.42724 7.80171 9.50503 7.53321 9.58504C7.26471 9.66505 6.99849 9.76728 6.73682 9.87396C6.47515 9.98064 6.2203 10.0962 5.96773 10.2207C5.71516 10.3451 5.46942 10.4807 5.22822 10.6252C4.98703 10.7696 4.75039 10.923 4.52057 11.0852C4.29075 11.2474 4.06549 11.4164 3.85387 11.5941C3.64226 11.7719 3.43065 11.9609 3.22814 12.1542C3.02563 12.3476 2.83449 12.552 2.65019 12.7609C2.46588 12.9699 2.2884 13.1854 2.12229 13.4077C1.95619 13.6299 1.79463 13.8522 1.64673 14.0944C1.49883 14.3367 1.35548 14.5678 1.22578 14.8145C1.09608 15.0612 0.97321 15.3079 0.86399 15.5635C0.754771 15.8191 0.652381 16.0747 0.561364 16.3369C0.470348 16.5992 0.392984 16.8636 0.333824 17.1325C0.274663 17.4015 0.2064 17.6704 0.158616 17.9438C0.110833 18.2171 0.074425 18.4883 0.0471201 18.7638C0.0198153 19.0394 0.0061635 19.315 0.00161269 19.5928C-0.00293812 19.8706 0.00161186 20.144 0.0220905 20.4196C0.0425692 20.6952 0.0698752 20.9707 0.108557 21.2441C0.147239 21.5175 0.197299 21.7909 0.258735 22.0598C0.320171 22.3287 0.392984 22.5976 0.486275 22.8621C0.579567 23.1266 0.661482 23.3866 0.763875 23.6444C0.866269 23.9022 0.980037 24.1556 1.10291 24.4023C1.22578 24.6489 1.35775 24.8956 1.50111 25.1357C1.64446 25.3757 1.79463 25.6068 1.95619 25.8335C2.11774 26.0602 2.28612 26.278 2.46588 26.5003C2.64564 26.7225 2.82994 26.9225 3.02563 27.1226C3.22131 27.3226 3.42155 27.5159 3.63316 27.7004C3.84478 27.8849 4.04046 28.056 4.268 28.2316L9.14875 23.4621C8.99238 23.3976 8.84038 23.3233 8.69367 23.2399C8.54754 23.1495 8.40698 23.0508 8.27272 22.9443C8.14025 22.8412 8.01341 22.7314 7.89272 22.6154C7.77343 22.4978 7.66172 22.3731 7.55824 22.242C7.4532 22.1126 7.35668 21.9767 7.26926 21.8353C7.18435 21.6917 7.10836 21.5433 7.04172 21.3908C6.90312 21.0879 6.80154 20.7701 6.73909 20.444C6.70916 20.2816 6.6894 20.1176 6.67993 19.9529C6.66855 19.7871 6.66855 19.6208 6.67993 19.455C6.68904 19.2901 6.70956 19.1261 6.74137 18.9639C6.77134 18.8008 6.81161 18.6398 6.86196 18.4816C6.91274 18.3235 6.97276 18.1684 7.04172 18.0171C7.10925 17.865 7.18521 17.7166 7.26926 17.5726C7.35746 17.431 7.45394 17.2944 7.55824 17.1637C7.66253 17.0333 7.775 16.9093 7.895 16.7925C8.01407 16.6748 8.14101 16.5649 8.27499 16.4636C8.40809 16.3617 8.54713 16.2675 8.69139 16.1813C8.83888 16.0993 8.99079 16.0251 9.14647 15.9591C9.30065 15.8917 9.45868 15.8331 9.61976 15.7835C9.78177 15.7346 9.94666 15.6953 10.1135 15.6657C10.2803 15.6345 10.4491 15.6145 10.6187 15.6057C10.7876 15.5946 10.9571 15.5946 11.1261 15.6057C11.4646 15.6235 11.7995 15.6833 12.1227 15.7835C12.2841 15.8321 12.4422 15.8908 12.596 15.9591C12.7521 16.0242 12.9041 16.0984 13.0511 16.1813C13.3416 16.3528 13.6098 16.558 13.8497 16.7925C13.9697 16.9086 14.0822 17.0318 14.1865 17.1614C14.3953 17.4224 14.5718 17.7066 14.7121 18.0082L19.5929 13.2388C19.337 12.9137 19.0628 12.6028 18.7714 12.3076C18.4802 12.0127 18.1717 11.7344 17.8476 11.4741C17.5228 11.2141 17.1832 10.9723 16.8305 10.7496C16.478 10.5275 16.1126 10.3257 15.736 10.1451C15.3595 9.96297 14.972 9.8034 14.5756 9.66727C14.1799 9.52953 13.7765 9.41378 13.3674 9.32057C12.9582 9.22938 12.5442 9.16038 12.1273 9.11388C11.7084 9.07368 11.2876 9.05588 10.8667 9.06054Z" fill="white"/>
<path d="M126.375 18.7393L132.662 16.1857C132.567 15.9624 132.432 15.7571 132.264 15.579C132.097 15.3995 131.9 15.2492 131.682 15.1345C131.189 14.8608 130.63 14.7218 130.064 14.7322C129.101 14.7561 128.187 15.1517 127.522 15.8324C127.324 16.0182 127.147 16.2247 126.994 16.448C126.689 16.8972 126.489 17.4062 126.407 17.9393C126.367 18.2041 126.357 18.4723 126.375 18.7393ZM130.326 25.8179C129.402 25.8403 128.483 25.6769 127.627 25.3379C127.2 25.1681 126.792 24.9558 126.41 24.7045C126.027 24.4542 125.672 24.1652 125.351 23.8421C124.697 23.2009 124.182 22.4365 123.838 21.5952C123.665 21.176 123.538 20.7403 123.458 20.2951C123.196 18.9502 123.314 17.5611 123.8 16.2768C124.13 15.4276 124.632 14.6521 125.276 13.9966C125.884 13.3724 126.618 12.8782 127.431 12.5453C127.837 12.3796 128.26 12.2559 128.692 12.1764C129.124 12.0947 129.564 12.0582 130.005 12.0675C130.815 12.0561 131.619 12.2074 132.367 12.512C133.042 12.7771 133.656 13.1699 134.176 13.6677C134.622 14.0876 135.018 14.5559 135.356 15.0634C135.631 15.4923 135.864 15.9445 136.055 16.4146L136.374 17.2014L126.912 21.0129C126.983 21.1726 127.067 21.3264 127.163 21.473C127.256 21.6212 127.362 21.7617 127.479 21.893C127.595 22.024 127.72 22.1466 127.854 22.2597C127.99 22.373 128.134 22.4762 128.284 22.5687C128.435 22.6611 128.592 22.7421 128.755 22.8109C128.919 22.8802 129.088 22.9374 129.261 22.982C129.433 23.0255 129.607 23.0567 129.784 23.0754C129.961 23.0935 130.139 23.0995 130.316 23.0932C130.664 23.0936 131.009 23.0502 131.345 22.9643C132.019 22.7943 132.636 22.4548 133.133 21.9797C133.383 21.7434 133.6 21.4768 133.78 21.1863L136.141 22.742C135.538 23.5866 134.763 24.3014 133.866 24.8422C132.808 25.4973 131.578 25.8364 130.326 25.8179ZM121.863 5.21561V25.4023H118.778V5.21561H121.863ZM110.177 23.1154C110.682 23.1268 111.183 23.0291 111.645 22.8293C112.107 22.6296 112.517 22.3326 112.848 21.9597C113.578 21.1434 113.962 20.0868 113.924 19.0038C113.968 17.9025 113.584 16.8258 112.848 15.9902C112.683 15.8043 112.498 15.6367 112.295 15.4901C112.093 15.3438 111.875 15.22 111.644 15.1212C111.415 15.0215 111.174 14.947 110.928 14.8989C110.681 14.8508 110.429 14.8292 110.177 14.8345C109.919 14.8302 109.661 14.8518 109.408 14.8989C108.898 14.9961 108.416 15.1976 107.992 15.4901C107.781 15.6362 107.587 15.8039 107.412 15.9902C106.63 16.7958 106.205 17.8712 106.231 18.9816C106.219 19.526 106.317 20.0673 106.52 20.5745C106.723 21.0818 107.026 21.545 107.412 21.9375C107.585 22.1257 107.779 22.2949 107.99 22.442C108.203 22.5906 108.432 22.7165 108.673 22.8176C108.91 22.9182 109.158 22.9927 109.412 23.0398C109.666 23.0901 109.925 23.114 110.184 23.1109L110.177 23.1154ZM109.965 31.9853C108.548 32.029 107.159 31.5967 106.029 30.7607C105.027 30.0226 104.238 29.0442 103.737 27.9204L106.434 26.8225C106.724 27.4961 107.184 28.0876 107.769 28.5427C108.393 29.0358 109.177 29.2944 109.979 29.2716C110.232 29.2854 110.486 29.2735 110.737 29.2361C110.988 29.1983 111.234 29.1343 111.472 29.0449C111.71 28.9544 111.939 28.8404 112.154 28.7049C112.366 28.5676 112.562 28.4089 112.739 28.2315C113.449 27.3911 113.798 26.3153 113.715 25.229V24.2355H113.608C113.384 24.496 113.13 24.7301 112.85 24.9334C112.004 25.5478 110.963 25.8522 109.911 25.7935C109.468 25.7962 109.026 25.753 108.593 25.6646C108.159 25.5778 107.736 25.4467 107.33 25.2734C106.517 24.9264 105.786 24.4195 105.182 23.7844C104.528 23.1511 104.012 22.3951 103.665 21.5619C103.491 21.1468 103.362 20.7157 103.278 20.2751C103.124 19.3924 103.124 18.4908 103.278 17.6081C103.533 16.2702 104.197 15.0391 105.182 14.0766C105.483 13.759 105.816 13.4723 106.177 13.221C106.537 12.9684 106.924 12.7538 107.33 12.5809C108.141 12.2328 109.018 12.0534 109.904 12.0542C110.655 12.051 111.398 12.2128 112.077 12.5275C112.667 12.7772 113.192 13.1523 113.615 13.6254H113.715V12.5275H116.65V24.8267C116.728 25.7994 116.601 26.7773 116.277 27.7004C116.117 28.1641 115.908 28.6109 115.656 29.0338C115.403 29.4529 115.106 29.8454 114.771 30.2051C114.454 30.5039 114.106 30.7698 113.733 30.9985C113.36 31.2293 112.965 31.4229 112.552 31.5763C111.726 31.8822 110.846 32.025 109.963 31.9964L109.965 31.9853ZM92.0509 21.9264C92.1391 22.0195 92.2325 22.1078 92.3308 22.1908C92.4298 22.2744 92.5331 22.353 92.6402 22.4264C92.7466 22.5 92.8567 22.5683 92.9702 22.6309C93.084 22.6931 93.1977 22.7509 93.3206 22.802C93.4409 22.853 93.5639 22.8975 93.6892 22.9354C93.8132 22.974 93.9393 23.0059 94.0669 23.0309C94.3227 23.0842 94.5836 23.111 94.8451 23.1109C95.1067 23.111 95.3675 23.0842 95.6233 23.0309C95.7508 23.0056 95.8769 22.9737 96.001 22.9354C96.1257 22.8979 96.248 22.8534 96.3674 22.802C96.607 22.6991 96.8357 22.5733 97.05 22.4264C97.1568 22.3536 97.2593 22.2749 97.3572 22.1908C97.4567 22.1084 97.5509 22.0201 97.6393 21.9264C97.8342 21.7295 98.0087 21.5144 98.1604 21.2841C98.311 21.0533 98.4375 20.8083 98.5381 20.5529C98.642 20.2984 98.7182 20.0339 98.7656 19.7639C98.843 19.2205 98.843 18.6693 98.7656 18.1259C98.7163 17.8556 98.6401 17.5906 98.5381 17.3347C98.4372 17.0783 98.3099 16.8326 98.1581 16.6013C98.0071 16.3692 97.8325 16.1526 97.637 15.9546C97.546 15.8635 97.4527 15.7746 97.3526 15.6923C97.2525 15.6101 97.1501 15.5323 97.0409 15.4701C96.9337 15.3972 96.8229 15.3297 96.7087 15.2679C96.5949 15.2078 96.4811 15.1523 96.356 15.1012C96.2308 15.05 96.1125 15.0078 95.9896 14.9678C95.8668 14.9278 95.7371 14.8989 95.6097 14.8722C95.4818 14.847 95.3527 14.8285 95.2228 14.8167C95.0928 14.8034 94.9622 14.7968 94.8315 14.7967C94.7007 14.7966 94.5701 14.8033 94.4401 14.8167C94.3095 14.8287 94.1796 14.8472 94.051 14.8722C93.9236 14.8989 93.7984 14.93 93.6733 14.9678C93.5481 15.0056 93.4253 15.05 93.3047 15.1012C93.1841 15.1523 93.0771 15.2078 92.952 15.2679C92.8378 15.3297 92.7269 15.3972 92.6198 15.4701C92.5128 15.5434 92.4082 15.6212 92.308 15.6923C92.2079 15.7635 92.1146 15.8635 92.0236 15.9546C91.8282 16.1526 91.6536 16.3692 91.5025 16.6013C90.9369 17.557 90.7255 18.6739 90.9041 19.7639C90.9987 20.306 91.2063 20.8235 91.5139 21.2841C91.6656 21.5144 91.8401 21.7295 92.035 21.9264H92.0509ZM99.8487 23.8555C99.6826 24.011 99.5097 24.1577 99.3277 24.3C99.1475 24.4406 98.9599 24.5719 98.7656 24.6933C98.5722 24.8156 98.3743 24.9156 98.1695 25.0312C97.9647 25.1467 97.7554 25.229 97.5415 25.3134C97.3276 25.3979 97.1091 25.4712 96.8884 25.5357C96.6676 25.6002 96.4436 25.6536 96.2172 25.6957C95.9914 25.7387 95.7636 25.7706 95.5346 25.7912C95.3055 25.8135 95.078 25.8246 94.8519 25.8246C94.6244 25.8246 94.3969 25.8135 94.1693 25.7912C93.9418 25.769 93.7142 25.7379 93.4867 25.6957C93.2592 25.6535 93.0316 25.6001 92.8155 25.5357C92.5993 25.4712 92.3786 25.3979 92.1647 25.3134C91.9508 25.229 91.7415 25.1356 91.5367 25.0312C91.3319 24.9267 91.1317 24.8089 90.9382 24.6933C90.7448 24.5778 90.5582 24.44 90.3762 24.3C90.1942 24.1599 90.0235 24.0133 89.8552 23.8555C89.5214 23.538 89.2217 23.188 88.9609 22.8109C88.7017 22.4334 88.4822 22.0313 88.3056 21.6108C87.9528 20.765 87.7846 19.8567 87.8118 18.9438C87.7984 18.4895 87.8343 18.0351 87.9188 17.5881C88.0004 17.1402 88.1308 16.7021 88.3079 16.2813C88.6589 15.4365 89.1858 14.6721 89.8552 14.0366C90.0235 13.881 90.1965 13.7321 90.3762 13.5921C90.556 13.4521 90.7448 13.3232 90.9382 13.2009C91.1317 13.0787 91.3319 12.9654 91.5367 12.8609C91.7415 12.7565 91.9508 12.6653 92.1647 12.5809C92.3786 12.4964 92.5947 12.4231 92.8155 12.3586C93.0362 12.2942 93.2705 12.2431 93.4867 12.1986C93.7029 12.1542 93.9418 12.1253 94.1693 12.103C94.3969 12.0808 94.6244 12.0697 94.8519 12.0697C95.0795 12.0697 95.307 12.0697 95.5346 12.103C95.7621 12.1364 95.9896 12.1564 96.2172 12.1986C96.4447 12.2408 96.6723 12.2964 96.8884 12.3586C97.1046 12.4209 97.3276 12.4964 97.5415 12.5809C97.7554 12.6653 97.9647 12.7587 98.1695 12.8609C98.3743 12.9631 98.5722 13.0832 98.7656 13.2009C98.959 13.3187 99.1479 13.4543 99.3277 13.5921C99.5074 13.7299 99.6826 13.881 99.8487 14.0366C100.183 14.3532 100.482 14.7025 100.743 15.0789C101.003 15.4565 101.223 15.8594 101.398 16.2813C101.573 16.7028 101.704 17.1407 101.787 17.5881C101.93 18.4873 101.93 19.4026 101.787 20.3017C101.706 20.7496 101.575 21.1877 101.398 21.6086C101.224 22.0299 101.004 22.4322 100.743 22.8087C100.482 23.1867 100.181 23.5374 99.8465 23.8555H99.8487ZM76.6646 21.9264C76.753 22.0201 76.8472 22.1084 76.9468 22.1908C77.0446 22.2749 77.1471 22.3536 77.2539 22.4264C77.4683 22.5733 77.6969 22.6991 77.9366 22.802C78.0559 22.8534 78.1782 22.8979 78.3029 22.9354C78.5521 23.011 78.8081 23.0631 79.0674 23.0909C79.3276 23.1176 79.59 23.1176 79.8502 23.0909C79.9801 23.0776 80.1092 23.0576 80.237 23.0309C80.3646 23.0059 80.4907 22.974 80.6147 22.9354C80.7394 22.8979 80.8617 22.8534 80.9811 22.802C81.1017 22.7509 81.2086 22.6931 81.3338 22.6309C81.4472 22.5683 81.5573 22.5 81.6637 22.4264C81.7705 22.3536 81.873 22.2749 81.9709 22.1908C82.0704 22.1084 82.1646 22.0201 82.253 21.9264C82.4479 21.7295 82.6224 21.5144 82.7741 21.2841C83.0748 20.8207 83.2796 20.3042 83.3771 19.7639C83.456 19.2206 83.456 18.6692 83.3771 18.1259C83.2824 17.5835 83.0774 17.0651 82.7741 16.6013C82.6238 16.3687 82.4491 16.152 82.253 15.9546C82.1632 15.8621 82.0683 15.7746 81.9686 15.6923C81.8685 15.6101 81.7661 15.5323 81.6591 15.4701C81.5522 15.4079 81.4316 15.3301 81.3246 15.2679C81.2177 15.2056 81.0971 15.1523 80.972 15.1012C80.8522 15.0508 80.7299 15.0063 80.6056 14.9678C80.4805 14.93 80.3531 14.8989 80.2256 14.8722C80.0978 14.847 79.9687 14.8285 79.8388 14.8167C79.5786 14.79 79.3163 14.79 79.0561 14.8167C78.9262 14.8285 78.7971 14.847 78.6693 14.8722C78.5396 14.8989 78.4144 14.93 78.2893 14.9678C78.1641 15.0056 78.0412 15.05 77.9206 15.1012C77.8 15.1523 77.6931 15.2078 77.5702 15.2679C77.4553 15.3297 77.3437 15.3972 77.2357 15.4701C77.1288 15.5434 77.0241 15.6212 76.9263 15.6923C76.8284 15.7635 76.7306 15.8635 76.6396 15.9546C76.4442 16.152 76.2703 16.3688 76.1208 16.6013C75.8175 17.0651 75.6124 17.5835 75.5178 18.1259C75.4697 18.3966 75.4499 18.6714 75.4586 18.946C75.4518 19.22 75.4723 19.4939 75.5201 19.7639C75.6175 20.3053 75.8248 20.8222 76.1299 21.2841C76.2816 21.5149 76.457 21.7301 76.6532 21.9264H76.6646ZM84.4624 23.8555C84.2963 24.011 84.1234 24.1577 83.9436 24.3C83.7639 24.4422 83.575 24.5711 83.3816 24.6933C83.1882 24.8156 82.988 24.9156 82.7832 25.0312C82.5784 25.1467 82.3691 25.229 82.1552 25.3134C81.9413 25.3979 81.7251 25.4712 81.5044 25.5357C81.2837 25.6001 81.0493 25.6535 80.8332 25.6957C80.617 25.7379 80.3781 25.7712 80.1505 25.7912C79.923 25.8112 79.6955 25.8246 79.4679 25.8246C79.2404 25.8246 79.0128 25.8135 78.7853 25.7912C78.5578 25.769 78.3302 25.7379 78.1027 25.6957C77.8771 25.6534 77.6538 25.6 77.4337 25.5357C77.2062 25.4734 76.9945 25.3979 76.7807 25.3134C76.5668 25.229 76.3574 25.1356 76.1527 25.0312C75.9479 24.9267 75.7499 24.8089 75.5542 24.6933C75.3585 24.5778 75.1742 24.44 74.9945 24.3C74.8147 24.1599 74.6395 24.0133 74.4734 23.8555C73.4631 22.8968 72.7852 21.6534 72.5348 20.2995C72.2893 19.1803 72.3383 18.0186 72.6774 16.9229C73.0164 15.8272 73.6343 14.8334 74.4734 14.0344C74.639 13.8774 74.8129 13.729 74.9945 13.5899C75.1745 13.4498 75.3621 13.3192 75.5565 13.1987C75.7492 13.0763 75.9482 12.9635 76.1527 12.8609C76.3574 12.7565 76.5668 12.6631 76.7807 12.5787C76.9945 12.4942 77.213 12.4209 77.4337 12.3564C77.6582 12.2915 77.8861 12.2381 78.1163 12.1964C78.3439 12.1542 78.5714 12.1231 78.7989 12.1008C79.0265 12.0786 79.254 12.0675 79.4816 12.0675C79.7091 12.0675 79.9366 12.0675 80.1642 12.1008C80.3917 12.1342 80.6193 12.1542 80.8468 12.1964C81.0732 12.2384 81.2973 12.2918 81.5181 12.3564C81.7456 12.4186 81.9572 12.4942 82.1711 12.5787C82.385 12.6631 82.5943 12.7565 82.7991 12.8609C83.0036 12.9635 83.2026 13.0763 83.3953 13.1987C83.59 13.3187 83.7776 13.4493 83.9573 13.5899C84.1389 13.729 84.3128 13.8774 84.4784 14.0344C85.1494 14.669 85.6771 15.4336 86.0279 16.2791C86.2029 16.7006 86.3333 17.1385 86.417 17.5859C86.5611 18.485 86.5611 19.4004 86.417 20.2995C86.2482 21.1976 85.8911 22.0519 85.3681 22.8087C85.1057 23.1852 84.8045 23.5345 84.4693 23.851L84.4624 23.8555ZM61.1372 25.8179C58.9523 25.8468 56.8098 25.2268 54.9936 24.0399C54.3945 23.6456 53.8366 23.1945 53.328 22.6931C52.0428 21.4611 51.0893 19.9378 50.5526 18.2588C50.0158 16.5798 49.9125 14.7973 50.2517 13.0698C50.5317 11.6893 51.1011 10.3802 51.9241 9.22495C52.3347 8.64865 52.8051 8.11537 53.328 7.63366C54.3407 6.61573 55.5538 5.80859 56.8943 5.26086C58.2349 4.71313 59.6751 4.43616 61.1281 4.44664C62.5134 4.42636 63.8889 4.67593 65.1742 5.18078C66.4596 5.68564 67.629 6.43564 68.6142 7.38696L66.5117 9.47609C66.1551 9.144 65.7665 8.84629 65.3513 8.5871C64.5177 8.06092 63.5859 7.70066 62.6094 7.52698C62.1231 7.44036 61.6293 7.40017 61.135 7.40697C60.0955 7.39357 59.0647 7.59265 58.1087 7.99147C57.6283 8.18815 57.1707 8.43401 56.7434 8.7249C55.9036 9.32213 55.1735 10.0541 54.5841 10.8896C54.2966 11.3093 54.0527 11.756 53.8559 12.2231C53.2582 13.6294 53.1022 15.1775 53.4077 16.6707C53.7132 18.1638 54.4664 19.5345 55.5716 20.6084C55.7511 20.7857 55.9402 20.9533 56.1382 21.1107C56.3369 21.2693 56.5417 21.4174 56.7525 21.5552C56.9641 21.693 57.1826 21.8219 57.4079 21.9397C57.6331 22.0575 57.8629 22.1619 58.0905 22.262C58.3254 22.3593 58.5654 22.4446 58.8095 22.5175C59.0526 22.5927 59.2994 22.6558 59.549 22.7065C59.7993 22.7553 60.0519 22.7954 60.3044 22.822C60.557 22.8487 60.8141 22.8643 61.069 22.8665C61.3238 22.8687 61.5787 22.8665 61.8335 22.8398C62.0884 22.8131 62.3387 22.7842 62.5912 22.7398C62.8438 22.6953 63.0895 22.6398 63.3353 22.5709C63.581 22.502 63.8222 22.422 64.0611 22.3309C64.3001 22.2397 64.5299 22.1375 64.7574 22.0242C64.985 21.9108 65.2125 21.7886 65.4218 21.653C65.637 21.5197 65.8451 21.3758 66.0453 21.2218C66.2469 21.0692 66.4406 20.9068 66.6255 20.7351C67.552 19.7427 68.1202 18.4813 68.2433 17.1436H61.1691V14.1877H71.2036C71.3014 14.7835 71.3402 15.3871 71.3197 15.9902C71.352 16.6126 71.3192 17.2366 71.2218 17.8526C71.1236 18.4675 70.9628 19.0713 70.7417 19.655C70.2956 20.826 69.6123 21.8971 68.7325 22.8042C67.2588 24.3054 65.3343 25.3095 63.2374 25.6712C62.544 25.7933 61.8391 25.8424 61.135 25.8179H61.1372Z" fill="white"/>
<path d="M152.527 25.8179C152.201 25.8179 151.874 25.8179 151.548 25.7868C151.223 25.7557 150.898 25.7157 150.577 25.6579C150.255 25.5996 149.937 25.5254 149.623 25.4357C149.309 25.3461 149 25.2408 148.697 25.1201C148.395 25.0001 148.099 24.8645 147.81 24.7156C147.52 24.5673 147.238 24.4041 146.966 24.2266C146.694 24.0492 146.431 23.8586 146.178 23.6555C145.925 23.4525 145.683 23.2376 145.452 23.0109C145.222 22.7851 145.004 22.5477 144.799 22.2997C144.386 21.8036 144.025 21.2675 143.723 20.6996C143.572 20.4162 143.436 20.1254 143.316 19.8284C143.194 19.5324 143.087 19.2305 142.997 18.9238C142.909 18.6149 142.833 18.3038 142.77 17.9904C142.711 17.6757 142.669 17.3582 142.645 17.0392C142.62 16.7214 142.61 16.4013 142.617 16.0835C142.624 15.7657 142.617 15.4434 142.645 15.1256C142.669 14.8066 142.711 14.4891 142.77 14.1744C142.827 13.861 142.902 13.5499 142.997 13.241C143.087 12.9343 143.194 12.6324 143.316 12.3364C143.436 12.0394 143.572 11.7486 143.723 11.4652C144.025 10.8973 144.386 10.3612 144.799 9.86504C145.004 9.6171 145.222 9.37972 145.452 9.15384C145.685 8.92715 145.926 8.71231 146.178 8.50932C146.683 8.10181 147.23 7.74655 147.81 7.44921C148.099 7.30031 148.395 7.16473 148.697 7.04472C149 6.92471 149.309 6.82246 149.623 6.72912C149.937 6.63936 150.255 6.56518 150.577 6.50687C150.898 6.44909 151.221 6.40465 151.548 6.37798C151.876 6.35131 152.201 6.34242 152.527 6.34686C153.854 6.30485 155.174 6.5565 156.387 7.083C157.601 7.60949 158.677 8.3972 159.535 9.3872L157.833 11.0029C157.52 10.6176 157.161 10.27 156.764 9.96726C155.965 9.35592 155.029 8.93851 154.033 8.74935C153.538 8.65384 153.033 8.61579 152.529 8.636C151.557 8.61501 150.59 8.78584 149.687 9.13828C148.783 9.49327 147.961 10.0223 147.271 10.694C146.914 11.0462 146.594 11.4327 146.317 11.8475C146.044 12.2636 145.815 12.706 145.634 13.1676C145.161 14.3248 144.975 15.5754 145.094 16.8163C145.213 18.0571 145.632 19.2526 146.317 20.304C146.594 20.7192 146.913 21.1057 147.271 21.4574C147.618 21.7902 147.999 22.088 148.408 22.3464C148.813 22.611 149.245 22.8344 149.696 23.0132C150.599 23.3656 151.566 23.5364 152.538 23.5154C153.668 23.5292 154.786 23.2937 155.81 22.8265C156.832 22.3621 157.734 21.6784 158.447 20.8262L160.149 22.4887C159.262 23.5355 158.142 24.3714 156.875 24.9334C155.513 25.5465 154.026 25.849 152.527 25.8179Z" fill="white"/>
<path d="M164.55 6.75134H162.277V25.4023H164.55V6.75134Z" fill="white"/>
<path d="M170.536 22.3754C170.632 22.4754 170.734 22.5687 170.839 22.6598C170.944 22.7509 171.067 22.831 171.171 22.911C171.286 22.991 171.404 23.0652 171.526 23.1332C171.648 23.2001 171.774 23.261 171.902 23.3155C172.029 23.3688 172.161 23.4155 172.293 23.4577C172.427 23.4985 172.563 23.5327 172.7 23.5599C172.837 23.5886 172.975 23.6094 173.115 23.6222C173.253 23.6355 173.391 23.6422 173.531 23.6422C173.672 23.6422 173.811 23.6422 173.95 23.6222C174.089 23.6094 174.227 23.5886 174.364 23.5599C174.501 23.5327 174.637 23.4985 174.771 23.4577C174.903 23.4155 175.035 23.3688 175.162 23.3155C175.291 23.261 175.416 23.2001 175.538 23.1332C175.66 23.0652 175.779 22.991 175.893 22.911C176.009 22.831 176.12 22.7487 176.225 22.6598C176.33 22.5709 176.432 22.4754 176.528 22.3754C176.741 22.1524 176.931 21.9089 177.094 21.6486C177.26 21.3892 177.397 21.1136 177.504 20.8263C177.925 19.6622 177.925 18.3922 177.504 17.2281C177.397 16.9408 177.26 16.6652 177.094 16.4058C176.93 16.1458 176.741 15.9024 176.528 15.679C176.432 15.579 176.33 15.4857 176.225 15.3946C176.12 15.3035 175.997 15.2234 175.893 15.1434C175.779 15.0634 175.66 14.9892 175.538 14.9212C175.416 14.8543 175.291 14.7934 175.162 14.7389C175.035 14.6856 174.903 14.6389 174.771 14.5967C174.503 14.5155 174.228 14.4605 173.95 14.4322C173.811 14.4189 173.672 14.4122 173.531 14.4122C173.39 14.4122 173.253 14.4122 173.115 14.4322C172.836 14.4605 172.561 14.5155 172.293 14.5967C172.161 14.6389 172.029 14.6856 171.902 14.7389C171.774 14.7934 171.648 14.8543 171.526 14.9212C171.404 14.9892 171.286 15.0634 171.171 15.1434C171.055 15.2234 170.944 15.3057 170.839 15.3946C170.734 15.4835 170.632 15.579 170.536 15.679C170.323 15.9024 170.134 16.1458 169.97 16.4058C169.804 16.6652 169.667 16.9408 169.56 17.2281C169.342 17.8034 169.244 18.4154 169.271 19.0283C169.26 19.3331 169.279 19.6383 169.328 19.9395C169.427 20.5428 169.649 21.1208 169.979 21.6397C170.144 21.8989 170.334 22.1416 170.548 22.3642L170.536 22.3754ZM168.716 14.1767C168.875 14.0233 169.042 13.8766 169.214 13.7322C169.386 13.5939 169.565 13.4648 169.751 13.3455C169.938 13.2254 170.129 13.1232 170.325 13.0099C170.521 12.8965 170.725 12.8165 170.93 12.732C171.135 12.6476 171.347 12.5765 171.56 12.5098C171.99 12.3904 172.431 12.3123 172.876 12.2764C173.097 12.2542 173.32 12.2431 173.542 12.2431C173.766 12.2431 173.989 12.2543 174.211 12.2764C174.433 12.2972 174.653 12.3291 174.871 12.372C175.09 12.4136 175.306 12.4663 175.52 12.5298C175.734 12.592 175.943 12.6654 176.15 12.7521C176.357 12.8387 176.557 12.9276 176.755 13.0299C176.953 13.1321 177.144 13.2521 177.329 13.3655C177.515 13.4853 177.695 13.6144 177.868 13.7522C178.041 13.89 178.205 14.0366 178.364 14.1967C179.308 15.1714 179.934 16.3984 180.161 17.7215C180.286 18.6011 180.286 19.4933 180.161 20.3729C179.932 21.6957 179.307 22.9223 178.364 23.8977C178.205 24.0511 178.041 24.1978 177.868 24.3422C177.695 24.48 177.515 24.6091 177.329 24.729C177.144 24.849 176.951 24.9623 176.755 25.0645C176.56 25.1668 176.357 25.2579 176.15 25.3423C175.943 25.4268 175.734 25.4979 175.52 25.5646C175.306 25.6281 175.09 25.6808 174.871 25.7224C174.653 25.7663 174.433 25.7983 174.211 25.818C173.989 25.8401 173.766 25.8513 173.542 25.8513C173.32 25.8513 173.097 25.8402 172.876 25.818C172.653 25.7984 172.432 25.7665 172.213 25.7224C171.995 25.6808 171.778 25.6281 171.565 25.5646C171.351 25.5024 171.142 25.429 170.935 25.3423C170.728 25.2557 170.527 25.1668 170.329 25.0645C170.131 24.9623 169.943 24.8423 169.756 24.729C169.57 24.6096 169.391 24.4805 169.219 24.3422C169.046 24.2044 168.88 24.0578 168.721 23.8977C168.095 23.2502 167.606 22.4891 167.28 21.6575C166.644 19.9729 166.644 18.1215 167.28 16.4369C167.606 15.6053 168.095 14.8442 168.721 14.1967L168.716 14.1767Z" fill="white"/>
<path d="M193.809 25.4024H191.441V23.6355H191.37C190.952 24.3083 190.356 24.8588 189.645 25.229C188.584 25.7688 187.378 25.9752 186.191 25.8202C185.508 25.7138 184.858 25.4586 184.289 25.0734C184.005 24.8798 183.744 24.6562 183.511 24.4067C182.615 23.2987 182.166 21.9089 182.248 20.4996V12.652H184.694V20.0662C184.694 22.4472 185.769 23.637 187.918 23.6355C188.641 23.6542 189.346 23.4174 189.905 22.9687C190.09 22.8224 190.257 22.6544 190.401 22.4687C190.716 22.0799 190.96 21.6408 191.122 21.1708C191.282 20.6995 191.359 20.2049 191.35 19.7084V12.6409H193.809V25.4024Z" fill="white"/>
<path d="M202.513 23.6354C203.066 23.6438 203.615 23.5362 204.122 23.3199C204.63 23.1071 205.084 22.7894 205.455 22.3886C205.661 22.1602 205.843 21.9123 205.999 21.6486C206.156 21.3865 206.286 21.1095 206.386 20.8218C206.491 20.5334 206.567 20.2357 206.613 19.9328C206.662 19.327 206.662 18.7184 206.613 18.1126C206.567 17.8098 206.491 17.512 206.386 17.2236C206.181 16.6513 205.865 16.123 205.455 15.6679C205.362 15.5679 205.264 15.4745 205.161 15.3834C205.058 15.2928 204.949 15.2082 204.836 15.1301C204.725 15.0493 204.608 14.9751 204.488 14.9078C204.368 14.8397 204.244 14.7781 204.117 14.7233C203.99 14.6687 203.86 14.6204 203.728 14.5789C203.596 14.5367 203.462 14.5033 203.327 14.4744C202.783 14.3639 202.22 14.3639 201.675 14.4744C201.541 14.5033 201.407 14.5367 201.275 14.5789C201.143 14.6204 201.013 14.6687 200.886 14.7233C200.759 14.7786 200.635 14.8402 200.515 14.9078C200.395 14.9751 200.278 15.0493 200.167 15.1301C200.053 15.2082 199.945 15.2928 199.841 15.3834C199.739 15.4745 199.641 15.5679 199.548 15.6679C199.342 15.8952 199.159 16.1416 199.002 16.4035C198.845 16.665 198.715 16.9413 198.615 17.2281C198.509 17.5163 198.433 17.8141 198.387 18.1171C198.342 18.7208 198.342 19.3269 198.387 19.9306C198.433 20.2335 198.51 20.5313 198.615 20.8196C198.817 21.3936 199.134 21.9225 199.548 22.3753C199.733 22.5792 199.941 22.7625 200.167 22.922C200.392 23.0811 200.634 23.2167 200.888 23.3265C201.4 23.5442 201.954 23.6533 202.513 23.6466V23.6354ZM202.112 25.8179C201.283 25.82 200.462 25.6472 199.707 25.3112C198.952 24.9749 198.28 24.482 197.739 23.8666C197.437 23.5389 197.167 23.1848 196.931 22.8087C196.697 22.4318 196.501 22.0336 196.346 21.6197C195.73 19.9438 195.73 18.1105 196.346 16.4347C196.501 16.0207 196.697 15.6225 196.931 15.2456C197.167 14.8696 197.437 14.5154 197.739 14.1877C198.282 13.5741 198.953 13.0815 199.707 12.7431C200.462 12.4072 201.283 12.2343 202.112 12.2364C203.042 12.2192 203.961 12.4342 204.781 12.8609C205.506 13.212 206.119 13.75 206.554 14.4166H206.661L206.554 12.6498V6.75134H209V25.4023H206.638V23.6354H206.531C206.096 24.3017 205.483 24.8395 204.759 25.1912C203.945 25.6155 203.035 25.8312 202.112 25.8179Z" fill="white"/>
</svg>
