<svg width="113" height="43" viewBox="0 0 113 43" fill="none" xmlns="http://www.w3.org/2000/svg">
<path d="M56.7188 21.4741C56.7188 26.2217 60.7849 28.5698 65.3188 30.7662L69.3586 32.7304C71.5614 33.7916 72.5421 34.9882 72.5421 36.6008C72.5421 38.7521 70.6863 40.0906 67.6951 40.0906C62.1843 40.0906 60.5285 36.1719 59.627 32.3499L59.4912 31.7564H56.7904V42.5354H58.8877L59.1441 42.2838C59.6307 41.8194 59.6307 41.8194 60.0985 41.8194C61.1342 41.8574 62.1611 42.0003 63.1575 42.2451C64.7987 42.6256 66.486 42.8421 68.1855 42.8902C72.742 42.8902 79.1656 40.2745 79.1656 34.4592C79.1656 30.405 76.3254 28.5891 72.8929 26.7894L65.349 22.9706C63.6214 22.0901 62.7803 20.9161 62.7803 19.3776C62.7803 18.1197 63.9571 16.249 67.2048 16.249C69.6188 16.249 72.5836 17.0134 74.0924 22.9932L74.2433 23.5802H76.8836L76.5555 13.9236H74.4469L74.1942 14.2977C74.1477 14.378 74.077 14.4462 73.9896 14.4955C73.9021 14.5448 73.8009 14.5734 73.6963 14.5783C73.5869 14.5783 72.991 14.4106 72.6326 14.3138C71.286 13.9429 69.2643 13.3882 67.2123 13.3882C61.1169 13.3979 56.7188 16.7941 56.7188 21.4741Z" fill="white"/>
<path d="M28.1349 0.0806689L27.9124 0.148398C26.6601 0.528986 21.7302 1.91266 17.7508 2.74802L17.0869 2.88992V5.25086L18.045 5.16701C20.278 4.97026 21.1267 5.21861 21.4397 5.46373C21.7528 5.70886 21.8169 6.31844 21.8169 7.22798V15.1784C19.9355 13.9829 17.6425 13.3566 15.299 13.398C11.3347 13.398 7.37794 15.101 4.48863 18.0683C1.58824 21.0972 0.00236363 24.8907 0 28.8054C0 42.5066 12.1683 42.9033 13.5564 42.9033C16.9511 42.9033 19.7197 42.0002 21.8169 40.2392V42.355L22.8165 43L34.0871 39.5844V37.3009L33.1479 37.3622C30.9601 37.5073 30.1303 37.2396 29.8022 36.988C29.474 36.7365 29.425 36.2785 29.425 35.4818V0.464483L28.2217 0.0548706L28.1349 0.0806689ZM7.7438 26.8992C7.7438 19.2649 11.9307 16.5556 15.5178 16.5556C19.467 16.5556 21.8283 19.3907 21.8283 22.1322V35.3722C21.3454 37.0783 19.1087 38.3169 16.4947 38.3169C12.455 38.3169 7.7438 35.3238 7.7438 26.8992Z" fill="white"/>
<path d="M38.8737 5.196C38.8729 4.16883 39.2285 3.16454 39.8953 2.31017C40.5622 1.4558 41.5103 0.789731 42.6199 0.396208C43.7295 0.00268531 44.9507 -0.100614 46.129 0.0993857C47.3072 0.299385 48.3897 0.793692 49.2393 1.51979C50.089 2.24588 50.6678 3.17114 50.9024 4.17853C51.137 5.18592 51.017 6.23018 50.5574 7.17922C50.0979 8.12826 49.3196 8.93944 48.3208 9.51017C47.322 10.0809 46.1478 10.3855 44.9465 10.3855C43.3366 10.3855 41.7925 9.83889 40.6537 8.86575C39.5149 7.89261 38.8747 6.57265 38.8737 5.196Z" fill="white"/>
<path d="M35.2413 35.6399C35.2413 35.6399 38.636 41.768 45.3011 41.768C51.9661 41.768 55.1081 35.6399 55.1081 35.6399C55.1081 35.6399 50.28 37.7751 45.3011 37.7751C40.4654 37.7751 35.2413 35.6399 35.2413 35.6399Z" fill="white"/>
<path d="M38.6474 28.7119C38.6474 28.7119 40.8766 32.8596 45.2596 32.8596C49.6426 32.8596 51.7059 28.699 51.7059 28.699C51.7059 28.699 48.1338 29.7182 45.2596 29.7182C42.3854 29.7182 38.6474 28.7119 38.6474 28.7119Z" fill="white"/>
<path d="M39.994 21.6387C39.994 21.6387 41.763 25.0769 45.2407 25.0769C48.7185 25.0769 50.3555 21.6387 50.3555 21.6387C48.6809 21.9999 46.9666 22.2096 45.2407 22.2644C43.4719 22.205 41.7143 21.9954 39.994 21.6387Z" fill="white"/>
<path d="M41.2915 14.8623C41.2915 14.8623 42.6155 17.4426 45.2257 17.4426C47.8359 17.4426 49.0617 14.8623 49.0617 14.8623C47.742 15.1595 46.3891 15.3357 45.0257 15.388C43.7608 15.3418 42.507 15.1653 41.2915 14.8623Z" fill="white"/>
<path d="M112.272 39.9361C109.198 39.4717 108.802 39.4104 108.802 35.6013V23.6192C108.802 16.846 105.626 13.3982 99.372 13.3982C95.8339 13.3982 92.6051 14.6883 89.9949 17.1041V0.606542L88.8633 0.0195312L88.7539 0.0582335L88.4597 0.161446C86.9887 0.674272 81.293 2.13212 78.6526 2.75784L78.0152 2.9062V5.25746L78.9808 5.16392C79.5285 5.11765 80.0789 5.09934 80.6291 5.10909C81.1168 5.0653 81.6052 5.18561 81.9908 5.44453C82.4284 5.82511 82.4133 6.57662 82.4057 7.18298V7.45391V35.4723C82.4057 39.2782 82.1304 39.6104 78.7243 39.92L77.9473 39.9909V42.2971H94.1063V39.9555H93.963C90.8436 39.6716 90.0024 39.5942 90.0024 35.569V21.4421C90.3796 21.0261 93.2689 18.1329 96.7919 18.1329C99.8548 18.1329 101.22 19.9069 101.22 23.8869V35.6303C101.22 39.3265 100.466 39.7491 97.2861 39.9522H97.2182V42.3261H113V40.0684L112.272 39.9361Z" fill="white"/>
</svg>
