<svg width="181" height="38" viewBox="0 0 181 38" fill="none" xmlns="http://www.w3.org/2000/svg">
<path d="M173.121 17.2059H167.277V30.3993H163.308V17.2059H160.52V14.0459H163.308V11.7725C163.308 10.0845 163.897 8.65981 165.024 7.55152C166.15 6.44324 167.598 5.91467 169.368 5.91467C169.849 5.91467 170.279 5.96772 170.654 5.96772C170.986 5.9754 171.313 6.04683 171.617 6.17801V9.49908C171.39 9.39869 171.157 9.31078 170.92 9.23574C170.555 9.12339 170.175 9.06966 169.793 9.07661C168.99 9.07661 168.345 9.34183 167.918 9.81546C167.49 10.2891 167.275 11.0829 167.275 12.032V13.9853H173.119V10.291L177.031 9.12965V13.9853H181V17.1529H177.03V24.8048C177.03 25.8089 177.245 26.4947 177.567 26.9172C177.94 27.3377 178.529 27.5499 179.334 27.5499C179.609 27.5387 179.881 27.485 180.139 27.3908C180.427 27.3082 180.698 27.1802 180.944 27.0119V30.1795C180.557 30.3712 180.14 30.4961 179.71 30.5489C179.144 30.6539 178.57 30.7065 177.994 30.7062C176.333 30.7062 175.1 30.2843 174.295 29.4406C173.49 28.5957 173.063 27.2771 173.063 25.5342L173.121 17.2059ZM147.17 22.3211C147.17 24.0091 147.555 25.3296 148.35 26.2257C149.146 27.1218 150.276 27.5992 151.728 27.5992C153.122 27.5992 154.248 27.1767 155.001 26.2257C155.752 25.3296 156.128 24.0091 156.128 22.215C156.128 20.4739 155.743 19.1535 155.001 18.2043C154.252 17.3063 153.126 16.8327 151.786 16.8327C150.338 16.8327 149.265 17.3063 148.462 18.2574C147.599 19.2634 147.17 20.5838 147.17 22.3249V22.3211ZM143.095 22.4783C143.095 19.7881 143.9 17.6227 145.406 16.037C146.958 14.457 149.101 13.667 151.836 13.667C154.408 13.667 156.445 14.4058 157.893 15.9404C159.341 17.4749 160.085 19.5267 160.085 22.1127C160.085 24.7517 159.28 26.8641 157.774 28.446C156.22 30.0298 154.129 30.8217 151.449 30.8217C148.873 30.8217 146.836 30.0829 145.337 28.6052C143.91 27.0744 143.095 25.017 143.095 22.4821V22.4783ZM134.303 18.3616C134.288 18.6078 134.328 18.8543 134.42 19.0835C134.513 19.3128 134.656 19.5191 134.839 19.6877C135.214 20.0041 135.965 20.3735 137.198 20.8491C138.753 21.4818 139.88 22.1752 140.471 22.9065C141.119 23.6973 141.46 24.6891 141.434 25.7047C141.455 26.4195 141.301 27.1289 140.983 27.7722C140.666 28.4155 140.195 28.9737 139.61 29.399C138.432 30.3462 136.77 30.7706 134.733 30.7706C133.956 30.7529 133.183 30.6647 132.422 30.5072C131.685 30.3816 130.965 30.1692 130.279 29.8745V26.0722C130.991 26.5631 131.768 26.954 132.59 27.2335C133.312 27.4912 134.072 27.6339 134.841 27.656C135.699 27.656 136.396 27.5499 136.766 27.2771C136.978 27.1535 137.15 26.9744 137.263 26.7599C137.377 26.5454 137.427 26.304 137.409 26.0627C137.406 25.8026 137.347 25.546 137.236 25.3097C137.125 25.0735 136.965 24.8627 136.766 24.6911C136.337 24.3122 135.478 23.8992 134.3 23.4237C132.852 22.8421 131.833 22.1563 131.244 21.4174C130.654 20.6785 130.331 19.7294 130.331 18.5756C130.318 17.8751 130.471 17.1811 130.778 16.549C131.085 15.9168 131.538 15.364 132.101 14.9344C133.281 13.9872 134.835 13.5097 136.722 13.5097C137.37 13.5069 138.016 13.5775 138.647 13.72C139.345 13.8792 139.995 14.0364 140.471 14.1956V17.9429C139.892 17.5906 139.281 17.2901 138.647 17.0449C137.998 16.7968 137.307 16.6683 136.61 16.666C135.859 16.666 135.262 16.8251 134.895 17.0885C134.709 17.247 134.559 17.4431 134.457 17.6635C134.355 17.8838 134.303 18.1232 134.303 18.3654V18.3616ZM115.539 22.3211C115.539 24.0091 115.912 25.3296 116.717 26.2257C117.522 27.1218 118.643 27.5992 120.095 27.5992C121.489 27.5992 122.615 27.1767 123.368 26.2257C124.119 25.3296 124.493 24.0091 124.493 22.215C124.493 20.4739 124.119 19.1535 123.368 18.2043C122.617 17.3063 121.491 16.8327 120.151 16.8327C118.703 16.8327 117.63 17.3063 116.827 18.2574C115.912 19.2634 115.539 20.5838 115.539 22.3249V22.3211ZM111.463 22.4783C111.463 19.7881 112.267 17.6227 113.773 16.037C115.326 14.4532 117.471 13.6613 120.206 13.6613C122.779 13.6613 124.816 14.4002 126.264 15.9347C127.712 17.4693 128.463 19.5229 128.463 22.1089C128.463 24.748 127.658 26.8603 126.153 28.4422C124.597 30.026 122.506 30.818 119.825 30.818C117.258 30.818 115.221 30.0791 113.713 28.6014C112.213 27.0744 111.463 25.017 111.463 22.4821V22.4783ZM109.747 13.7636C110.034 13.7531 110.322 13.7709 110.606 13.8167C110.823 13.8564 111.038 13.9089 111.249 13.9739V17.8917C110.979 17.6892 110.669 17.5452 110.338 17.4693C109.867 17.3352 109.38 17.2638 108.89 17.2571C107.927 17.2571 107.12 17.6796 106.477 18.4715C105.834 19.2634 105.459 20.4777 105.459 22.1657V30.3993H101.548V14.0459H105.462V16.6319H105.516C105.849 15.7988 106.405 15.0696 107.124 14.5214C107.905 14.0237 108.817 13.764 109.747 13.775V13.7636ZM94.7892 27.5935C95.4548 27.5939 96.1123 27.4497 96.7147 27.171C97.4007 26.9037 98.0481 26.5489 98.6403 26.1158V29.7135C97.9755 30.094 97.2503 30.3617 96.4952 30.5054C95.6309 30.6797 94.751 30.768 93.8687 30.7687C91.4021 30.7687 89.4188 30.0298 87.9169 28.4953C86.3629 26.9645 85.6062 25.0132 85.6062 22.6905C85.6062 20.0515 86.4092 17.8879 87.965 16.198C89.5209 14.5081 91.7275 13.667 94.6293 13.667C95.3694 13.6739 96.1063 13.7623 96.8264 13.9303C97.4417 14.0657 98.0365 14.2791 98.596 14.565V18.2593C98.0367 17.8455 97.4234 17.5078 96.7725 17.2552C96.1553 17.0287 95.5052 16.9008 94.8469 16.8763C93.2911 16.8763 92.0587 17.3518 91.094 18.354C90.1293 19.3562 89.6999 20.6767 89.6999 22.3666C89.6999 24.0015 90.1832 25.322 91.094 26.2181C92.0048 27.1142 93.2352 27.603 94.7892 27.603V27.5935ZM82.9412 14.0459V30.4068H79.0189V14.0459H82.9412ZM78.5972 9.34942C78.5865 9.05106 78.6436 8.75412 78.7641 8.48016C78.8847 8.2062 79.0658 7.9621 79.2942 7.7656C79.7448 7.35229 80.34 7.12568 80.956 7.13284C81.2705 7.11953 81.5845 7.16869 81.8793 7.27741C82.1741 7.38612 82.4435 7.55216 82.6717 7.7656C82.8907 7.96945 83.0655 8.21492 83.1853 8.48717C83.3051 8.75941 83.3675 9.05275 83.3687 9.34942C83.3798 9.64755 83.3229 9.94433 83.2023 10.218C83.0817 10.4918 82.9004 10.7355 82.6717 10.9313C82.2058 11.3549 81.5901 11.5827 80.956 11.566C80.6495 11.5789 80.3435 11.5292 80.0575 11.4199C79.7715 11.3107 79.5116 11.1443 79.2942 10.9313C78.8684 10.5057 78.6198 9.93869 78.5972 9.34183V9.34942ZM75.2737 7.60457V30.3993H71.2531V12.5076H71.1992L64.015 30.3993H61.3346L53.9867 12.5076H53.9328V30.3993H50.2357V7.60457H56.0259L62.6748 24.4941H62.7807L69.8051 7.60457H75.2737Z" fill="white"/>
<path d="M18.337 0H0V18.0508H18.337V0Z" fill="white"/>
<path d="M38.6035 0H20.2664V18.0508H38.6035V0Z" fill="white"/>
<path d="M18.337 19.9492H0V38H18.337V19.9492Z" fill="white"/>
<path d="M38.6035 19.9492H20.2664V38H38.6035V19.9492Z" fill="white"/>
</svg>
