<svg width="172" height="33" viewBox="0 0 172 33" fill="none" xmlns="http://www.w3.org/2000/svg">
<path d="M151.462 0C151.313 0.000669746 151.166 0.0313372 151.029 0.0902487C150.891 0.14916 150.766 0.235158 150.662 0.343317C150.557 0.451476 150.474 0.579674 150.418 0.720568C150.362 0.861462 150.333 1.01228 150.334 1.1644V9.33315H171.235L161.707 0H151.462Z" fill="white"/>
<path d="M172 11.8053C172.001 11.6528 171.973 11.5017 171.917 11.3604C171.861 11.2192 171.777 11.0908 171.672 10.9825C171.567 10.8743 171.442 10.7883 171.304 10.7297C171.166 10.6711 171.019 10.6409 170.869 10.6409H162.959V32.2195L171.985 22.3873V11.8053" fill="white"/>
<path d="M160.564 33C160.713 32.999 160.86 32.968 160.998 32.9087C161.135 32.8495 161.26 32.7632 161.364 32.6548C161.469 32.5464 161.551 32.4181 161.607 32.277C161.663 32.136 161.691 31.9851 161.69 31.833V23.6668H140.779L150.307 32.9974H160.562" fill="white"/>
<path d="M140.027 21.1973C140.026 21.3499 140.054 21.5011 140.11 21.6425C140.167 21.7838 140.25 21.9125 140.355 22.0211C140.46 22.1297 140.585 22.2161 140.722 22.2754C140.86 22.3347 141.008 22.3658 141.157 22.3668H149.053V0.785645L140.027 10.6127V21.1973Z" fill="white"/>
<path d="M44.2217 3.93847V13.9037H30.7724V3.93847L25.8756 3.93591V29.0615H30.7724V18.267H44.2217V29.0615H49.1285V3.93847H44.2217Z" fill="white"/>
<path d="M109.38 3.93848V29.0538H130.87L128.147 24.6342H114.291V18.2671H127.708V14.0087H114.291V8.25829H128.124L130.79 3.93848H109.38Z" fill="white"/>
<path d="M7.6674 3.93341C2.57252 3.93341 0 7.13233 0 11.7848V21.1615C0 26.5357 3.31468 29.0615 7.64232 29.0615H23.0097L20.1614 24.4679H8.5926C6.13292 24.4679 5.06229 23.5492 5.06229 20.7111V12.202C5.06229 9.45602 5.96492 8.3863 8.65779 8.3863H20.2817L23.0172 3.93341H7.6674Z" fill="white"/>
<path d="M87.8868 3.91803C84.9432 3.91803 81.9268 5.74269 81.9268 10.4387V11.6466C81.9268 16.5422 84.8303 18.4104 87.7338 18.4232H97.9236C98.9817 18.4232 99.8417 18.6049 99.8417 20.45V22.5997C99.8141 24.258 99.0118 24.647 97.8885 24.647H84.4818L81.7238 29.0692H98.1919C102.163 29.0692 104.861 27.0219 104.861 22.3182V20.5857C104.861 16.0304 102.354 13.8782 98.4702 13.8782H88.7518C87.6711 13.8782 86.9214 13.5736 86.9214 11.9256V10.1879C86.9214 8.78294 87.4354 8.27111 88.6916 8.27111H101.461L104.129 3.91803H87.8868Z" fill="white"/>
<path d="M65.7772 9.15399L70.2101 19.5952H61.3718L65.7772 9.15399ZM63.3576 3.93848L51.8239 29.0589H57.2849L59.5415 23.8716H72.0781L74.3196 29.0589H79.7981L68.2318 3.93848H63.3576Z" fill="white"/>
</svg>
