<svg width="158" height="30" viewBox="0 0 158 30" fill="none" xmlns="http://www.w3.org/2000/svg">
<path d="M63.6646 24.4888C62.2436 24.5152 60.8408 24.1791 59.5999 23.5151C58.3907 22.8804 57.3857 21.9409 56.6935 20.7984C55.965 19.5959 55.5926 18.2257 55.6164 16.8354C55.5978 15.4673 55.9703 14.1204 56.6935 12.9406C57.3819 11.7903 58.3874 10.8437 59.5999 10.2045C60.8322 9.55322 62.2166 9.21167 63.624 9.21167C65.0313 9.21167 66.4158 9.55322 67.6481 10.2045C68.8516 10.8451 69.8468 11.792 70.524 12.9406C71.2472 14.1204 71.6197 15.4673 71.6011 16.8354C71.6249 18.2257 71.2525 19.5959 70.524 20.7984C69.8435 21.9395 68.8486 22.8793 67.6481 23.5151C66.4303 24.1638 65.0579 24.4992 63.6646 24.4888ZM63.6646 21.8111C64.5317 21.8287 65.3878 21.6236 66.1442 21.2171C66.8609 20.7964 67.4415 20.1929 67.8209 19.4742C68.234 18.6553 68.4395 17.7545 68.4204 16.8451C68.4406 15.9388 68.235 15.0409 67.8209 14.2259C67.4468 13.5062 66.8648 12.9046 66.1442 12.4927C65.3878 12.0861 64.5317 11.8811 63.6646 11.8987C62.7879 11.881 61.922 12.0859 61.1546 12.4927C60.434 12.9046 59.852 13.5062 59.4779 14.2259C59.0637 15.0409 58.8582 15.9388 58.8784 16.8451C58.8593 17.7545 59.0648 18.6553 59.4779 19.4742C59.8542 20.2001 60.435 20.8105 61.1546 21.2366C61.9239 21.6365 62.7898 21.8347 63.6646 21.8111ZM78.7145 24.5375C77.7756 24.551 76.8443 24.3751 75.9809 24.0214C75.2292 23.7004 74.5701 23.2092 74.0603 22.59C73.6069 22.011 73.3418 21.3166 73.2982 20.5939H76.4484C76.4778 20.8196 76.5553 21.0372 76.6759 21.2331C76.7964 21.4291 76.9577 21.5992 77.1496 21.7332C77.5968 22.038 78.1354 22.1952 78.684 22.1811C79.1736 22.2071 79.6597 22.0881 80.0762 21.8403C80.2311 21.7447 80.3587 21.6137 80.4474 21.4589C80.5361 21.3042 80.5832 21.1307 80.5843 20.9542C80.5857 20.7676 80.5269 20.5851 80.416 20.4317C80.305 20.2783 80.1473 20.1616 79.9644 20.0973C79.3348 19.8341 78.6818 19.6256 78.0133 19.4742C77.2389 19.3064 76.4781 19.0852 75.737 18.812C75.136 18.5808 74.6025 18.2132 74.1823 17.741C73.7421 17.2011 73.5218 16.5262 73.5624 15.8422C73.5693 15.1947 73.7859 14.5653 74.1823 14.0409C74.6164 13.4734 75.2029 13.0293 75.8793 12.7556C76.7092 12.424 77.6021 12.2616 78.5011 12.2785C79.7729 12.2158 81.0254 12.5963 82.0273 13.3495C82.465 13.7006 82.8206 14.1362 83.071 14.6277C83.3214 15.1193 83.4609 15.6558 83.4805 16.2025H80.4319C80.4194 15.9853 80.3574 15.7734 80.2503 15.5817C80.1432 15.3899 79.9936 15.2229 79.812 15.0925C79.3976 14.786 78.8813 14.6338 78.3588 14.664C77.8984 14.6387 77.44 14.7401 77.0378 14.9562C76.8955 15.0482 76.7799 15.1733 76.7017 15.3197C76.6235 15.4661 76.5853 15.6291 76.5906 15.7935C76.5748 15.9988 76.6272 16.2036 76.7404 16.3786C76.8536 16.5535 77.0217 16.6896 77.2207 16.7673C77.845 17.0348 78.4951 17.2435 79.1616 17.3904C79.9161 17.5586 80.6565 17.7799 81.3769 18.0526C81.9618 18.2822 82.4759 18.6508 82.8707 19.1236C83.3286 19.6493 83.5675 20.3186 83.5414 21.0029C83.549 21.6646 83.3393 22.3118 82.9419 22.8529C82.5172 23.3976 81.949 23.8244 81.2956 24.0896C80.4747 24.4012 79.5973 24.5534 78.7145 24.5375ZM90.9088 24.5375C89.9733 24.5502 89.0455 24.3744 88.1854 24.0214C87.4337 23.7004 86.7746 23.2092 86.2648 22.59C85.8071 22.0133 85.5414 21.3176 85.5027 20.5939H88.6529C88.6828 20.8184 88.7594 21.0349 88.8781 21.2306C88.9967 21.4262 89.1551 21.5971 89.3439 21.7332C89.7949 22.0381 90.3367 22.1952 90.8885 22.1811C91.3781 22.2071 91.8642 22.0881 92.2807 21.8403C92.4356 21.7447 92.5632 21.6137 92.6519 21.4589C92.7407 21.3042 92.7877 21.1307 92.7888 20.9542C92.7902 20.7676 92.7314 20.5851 92.6205 20.4317C92.5095 20.2783 92.3518 20.1616 92.1689 20.0973C91.5328 19.833 90.8729 19.6244 90.1975 19.4742C89.4227 19.3079 88.6618 19.0865 87.9212 18.812C87.3238 18.5794 86.794 18.212 86.3766 17.741C85.9364 17.2011 85.7161 16.5262 85.7567 15.8422C85.7636 15.1947 85.9802 14.5653 86.3766 14.0409C86.8073 13.4703 87.3948 13.0254 88.0737 12.7556C88.9004 12.4251 89.7897 12.2626 90.6853 12.2785C91.9602 12.2161 93.2158 12.5964 94.2216 13.3495C94.6593 13.7006 95.015 14.1362 95.2653 14.6277C95.5157 15.1193 95.6552 15.6558 95.6748 16.2025H92.6567C92.6442 15.9853 92.5822 15.7734 92.4751 15.5817C92.368 15.3899 92.2184 15.2229 92.0368 15.0925C91.6216 14.7876 91.1059 14.6355 90.5837 14.664C90.1232 14.6387 89.6649 14.7401 89.2626 14.9562C89.1203 15.0482 89.0047 15.1733 88.9265 15.3197C88.8483 15.4661 88.8101 15.6291 88.8155 15.7935C88.7988 15.9977 88.8498 16.2017 88.9611 16.3765C89.0723 16.5513 89.2383 16.688 89.4354 16.7673C90.0633 17.0345 90.7167 17.2432 91.3864 17.3904C92.1405 17.56 92.8808 17.7813 93.6018 18.0526C94.1866 18.2822 94.7007 18.6508 95.0956 19.1236C95.5534 19.6493 95.7923 20.3186 95.7662 21.0029C95.7738 21.6646 95.5641 22.3118 95.1667 22.8529C94.7315 23.3997 94.153 23.8264 93.49 24.0896C92.6632 24.4055 91.7783 24.5579 90.8885 24.5375H90.9088ZM110.217 12.4732L102.544 30H99.1807L101.863 24.0896L96.9044 12.4732H100.41L103.652 20.7692L106.894 12.4732H110.217ZM115.033 8.49072V24.3427H111.903V8.49072H115.033ZM117.32 18.3641C117.299 17.2593 117.549 16.1652 118.051 15.1704C118.514 14.2931 119.216 13.5526 120.084 13.0282C120.955 12.5271 121.954 12.2676 122.97 12.2785C123.806 12.2642 124.634 12.4482 125.378 12.814C126.026 13.1416 126.588 13.6041 127.024 14.1674V12.4732H130.175V24.3427H127.024V22.6095C126.589 23.1948 126.014 23.6722 125.348 24.0019C124.592 24.3679 123.755 24.5517 122.909 24.5375C121.901 24.5422 120.911 24.2757 120.053 23.7682C119.185 23.2325 118.483 22.4824 118.021 21.5969C117.517 20.5889 117.266 19.4817 117.289 18.3641H117.32ZM127.065 18.4128C127.081 17.7637 126.927 17.121 126.618 16.5433C126.345 16.04 125.925 15.6239 125.409 15.3456C124.917 15.0644 124.355 14.9163 123.783 14.9172C123.216 14.914 122.658 15.0552 122.167 15.3262C121.645 15.6197 121.217 16.0438 120.927 16.553C120.621 17.1212 120.471 17.7544 120.49 18.3933C120.479 19.0378 120.629 19.6756 120.927 20.2531C121.215 20.7515 121.631 21.1706 122.137 21.4703C122.623 21.755 123.182 21.9034 123.752 21.8987C124.322 21.9017 124.883 21.7607 125.378 21.4897C125.89 21.2059 126.308 20.7912 126.587 20.2921C126.895 19.7106 127.045 19.0644 127.024 18.4128H127.065ZM136.404 14.2064C136.831 13.6211 137.399 13.1434 138.06 12.814C138.817 12.4502 139.653 12.2665 140.499 12.2785C141.506 12.2663 142.495 12.5261 143.355 13.0282C144.227 13.5472 144.931 14.289 145.387 15.1704C145.905 16.1606 146.163 17.2568 146.139 18.3641C146.161 19.4837 145.903 20.592 145.387 21.5969C144.932 22.4866 144.228 23.2382 143.355 23.7682C142.562 24.2245 141.664 24.4864 140.741 24.5306C139.817 24.5747 138.896 24.3998 138.06 24.0214C137.406 23.6905 136.84 23.221 136.404 22.6485V24.3427H133.274V8.49072H136.404V14.2064ZM142.958 18.3641C142.973 17.7221 142.812 17.0877 142.491 16.5238C142.206 16.0188 141.776 15.6031 141.251 15.3262C140.762 15.0524 140.207 14.9081 139.64 14.9081C139.074 14.9081 138.519 15.0524 138.03 15.3262C137.519 15.6238 137.102 16.0476 136.821 16.553C136.526 17.1343 136.374 17.7718 136.374 18.4177C136.374 19.0636 136.526 19.7011 136.821 20.2823C137.108 20.7807 137.524 21.1998 138.03 21.4995C138.519 21.7667 139.072 21.9076 139.635 21.9084C140.205 21.9131 140.765 21.7647 141.251 21.48C141.763 21.1885 142.182 20.7673 142.46 20.2629C142.782 19.6782 142.943 19.0248 142.928 18.3641H142.958ZM153.12 24.5375C152.181 24.551 151.25 24.3751 150.387 24.0214C149.635 23.7004 148.976 23.2092 148.466 22.59C148.013 22.011 147.748 21.3166 147.704 20.5939H150.854C150.884 20.8196 150.961 21.0372 151.082 21.2331C151.202 21.4291 151.363 21.5992 151.555 21.7332C152.003 22.038 152.541 22.1952 153.09 22.1811C153.579 22.2071 154.065 22.0881 154.482 21.8403C154.639 21.7467 154.768 21.6161 154.857 21.4609C154.946 21.3058 154.992 21.1313 154.99 20.9542C154.992 20.7676 154.933 20.5851 154.822 20.4317C154.711 20.2783 154.553 20.1616 154.37 20.0973C153.744 19.8347 153.094 19.6261 152.429 19.4742C151.655 19.3064 150.894 19.0852 150.153 18.812C149.565 18.5823 149.043 18.2218 148.629 17.7604C148.189 17.2205 147.968 16.5457 148.009 15.8617C148.004 15.2184 148.206 14.5894 148.588 14.0603C149.022 13.4929 149.609 13.0487 150.285 12.775C151.115 12.4435 152.008 12.281 152.907 12.2979C154.179 12.2353 155.431 12.6158 156.433 13.369C156.871 13.7201 157.226 14.1556 157.477 14.6472C157.727 15.1387 157.867 15.6753 157.886 16.222H154.888C154.876 16.0048 154.814 15.7929 154.707 15.6011C154.6 15.4094 154.45 15.2424 154.269 15.1119C153.854 14.8055 153.338 14.6533 152.815 14.6835C152.355 14.6582 151.897 14.7596 151.494 14.9756C151.352 15.0677 151.237 15.1927 151.158 15.3392C151.08 15.4856 151.042 15.6486 151.047 15.813C151.031 16.0183 151.084 16.2231 151.197 16.3981C151.31 16.573 151.478 16.7091 151.677 16.7867C152.302 17.0543 152.952 17.263 153.618 17.4099C154.373 17.578 155.113 17.7994 155.834 18.072C156.418 18.3016 156.933 18.6703 157.327 19.1431C157.785 19.6688 158.024 20.3381 157.998 21.0224C158.006 21.684 157.796 22.3312 157.398 22.8724C156.967 23.4419 156.38 23.8866 155.701 24.1577C154.882 24.4436 154.012 24.5726 153.141 24.5375H153.12Z" fill="white"/>
<path d="M30.3029 9.73706L21.7669 21.7137H16.3607L10.5379 29.8831H31.3801L45.7288 9.73706H30.3029Z" fill="white"/>
<path d="M20.832 20.1461H0L14.3487 0H35.1908L20.832 20.1461Z" fill="white"/>
</svg>
